<svg version="1.1" id="Layer_1" xmlns="http://www.w3.org/2000/svg" xmlns:xlink="http://www.w3.org/1999/xlink" x="0px" y="0px"
	 width="100%" viewBox="0 0 615 118" enable-background="new 0 0 615 118" xml:space="preserve">
<path fill="#FEFEFF" opacity="1.000000" stroke="none" 
	d="
M456.000000,119.000000 
	C304.051666,119.000000 152.603317,119.000000 1.077492,119.000000 
	C1.077492,79.731873 1.077492,40.463547 1.077492,1.097611 
	C205.999969,1.097611 410.999969,1.097611 615.972656,1.097611 
	C615.972656,40.396603 615.972656,79.698311 615.972656,119.000000 
	C562.796936,119.000000 509.648468,119.000000 456.000000,119.000000 
M377.121307,64.335976 
	C379.671783,60.903904 381.968750,61.405815 384.804077,64.299812 
	C389.818878,69.418396 396.529938,68.915489 400.065948,63.405170 
	C402.795166,59.152084 402.991211,54.609573 400.601349,50.211422 
	C398.478088,46.303970 394.681549,44.903229 390.482819,45.289253 
	C385.309418,45.764889 381.630768,48.629295 379.482727,53.433685 
	C378.798553,54.963924 377.876587,56.387867 376.946075,57.091892 
	C376.841705,56.267025 376.798889,55.428799 376.623260,54.619396 
	C375.114075,47.664291 371.795532,45.154026 365.069885,45.846306 
	C359.770905,46.391743 356.905304,49.902542 356.848938,56.383942 
	C356.754761,67.206711 356.811737,78.030960 356.836304,88.854515 
	C356.847260,93.695023 358.843719,97.242203 363.727478,98.604095 
	C371.153503,100.674927 376.549011,96.391205 376.785156,87.964508 
	C376.999603,80.312141 376.809937,72.648460 377.121307,64.335976 
M129.922363,63.268829 
	C127.804749,58.963104 126.040497,54.430893 123.467735,50.416889 
	C121.014046,46.588673 117.142616,44.527325 112.341553,45.705433 
	C103.484962,47.878689 100.474236,57.751392 106.919731,64.470306 
	C110.109566,67.795448 114.277679,70.182137 117.883896,72.903404 
	C115.318871,73.900734 112.278297,74.811455 109.491493,76.223137 
	C103.714333,79.149612 101.043106,86.589813 103.403015,92.480713 
	C105.465012,97.627937 109.510178,99.714905 115.998611,98.978996 
	C120.986809,98.413254 124.512657,95.121658 124.954216,89.845924 
	C125.197006,86.944969 124.359093,83.968056 124.213135,81.015266 
	C124.105438,78.836540 122.404572,75.564888 127.323364,76.552887 
	C129.774307,81.792183 132.041168,87.128281 134.730682,92.242088 
	C137.163239,96.867302 141.177444,99.392090 146.560333,98.960083 
	C150.885071,98.613014 154.207733,96.403633 155.649429,92.264542 
	C157.435974,87.135391 156.636154,82.167358 152.244781,78.734985 
	C148.490097,75.800255 144.141510,73.625366 140.264618,71.242836 
	C147.987015,68.309692 151.803986,65.167862 153.345444,59.955067 
	C154.661240,55.505398 153.938324,51.353630 150.644730,47.946075 
	C147.013153,44.188831 142.644211,44.551743 138.133209,46.019611 
	C134.014984,47.359669 131.966949,50.874832 132.423309,54.443485 
	C132.946152,58.532284 135.317245,62.384739 137.159622,67.031609 
	C134.901993,70.134987 134.082260,70.127373 131.510925,65.951576 
	C131.082047,65.255104 130.509918,64.646851 129.922363,63.268829 
M525.894470,98.850479 
	C532.534241,99.200272 539.110229,99.338715 545.261963,96.052658 
	C552.331726,92.276215 554.914124,86.964233 552.483154,80.710770 
	C550.331604,75.176086 545.265137,73.600182 537.248901,75.679321 
	C534.237915,76.460274 531.089294,76.710648 527.262024,77.008293 
	C523.321594,76.303268 519.956177,74.801582 520.706665,69.999161 
	C521.408203,65.510452 525.231445,65.011330 528.776367,65.116844 
	C532.228516,65.219597 535.692932,65.837822 539.094604,66.516930 
	C546.080750,67.911652 550.354736,66.071091 552.070923,60.679352 
	C553.981384,54.677628 551.802979,49.377705 545.162720,47.331856 
	C539.740295,45.661190 533.782410,45.022240 528.079956,45.109062 
	C514.983826,45.308456 504.695282,55.865173 503.948120,69.034355 
	C503.027802,85.256294 510.830353,96.206795 525.894470,98.850479 
M186.897446,98.962395 
	C192.967926,97.607201 199.281525,96.889244 205.032013,94.695320 
	C209.637054,92.938400 210.851151,87.749054 209.361740,82.694481 
	C207.943512,77.881531 204.739395,75.405121 199.744461,75.865013 
	C195.801270,76.228065 191.903290,77.082222 187.171066,77.417175 
	C178.881577,76.841896 177.910156,76.228294 177.677048,71.093727 
	C185.321472,71.093727 192.957489,71.228378 200.586258,71.051041 
	C206.666443,70.909691 210.531540,67.341782 209.626480,62.275269 
	C209.043015,59.009102 207.708847,55.377457 205.533340,52.977085 
	C192.323883,38.402370 167.730148,44.138897 161.811249,62.963371 
	C155.806885,82.059654 167.642960,99.615959 186.897446,98.962395 
M332.385101,45.242237 
	C311.587830,42.792191 298.083862,59.903347 303.892365,81.814346 
	C308.819489,100.400589 332.081726,102.516479 345.877899,95.645088 
	C351.151947,93.018257 353.164825,88.136169 351.633179,82.735046 
	C350.250885,77.860703 346.572876,75.493011 340.477020,75.877785 
	C335.686523,76.180168 330.920227,77.037643 326.131897,77.144844 
	C322.627808,77.223289 319.641144,75.872452 319.351379,70.954239 
	C322.737610,70.954239 325.869263,70.954239 329.929443,71.084763 
	C334.242279,71.090508 338.560944,71.242302 342.866608,71.069214 
	C350.083618,70.779121 353.177399,66.339149 351.298065,59.272827 
	C348.821014,49.958706 341.190552,47.482552 332.385101,45.242237 
M39.932602,75.063499 
	C44.574924,75.036316 49.227180,75.193741 53.857571,74.944733 
	C64.525864,74.371010 72.841270,67.143410 73.876068,56.972828 
	C75.883125,37.246223 70.278641,22.847368 44.063999,24.800568 
	C37.909908,24.796696 31.755510,24.752390 25.601810,24.799398 
	C18.249521,24.855562 14.306432,28.325737 14.014269,34.886547 
	C13.697691,41.995602 17.068218,46.070530 24.057556,47.131142 
	C24.756826,47.237255 25.393688,47.754627 26.388269,48.242352 
	C25.672005,49.185307 25.327108,50.000023 24.712570,50.391960 
	C19.250011,53.875843 16.334190,59.064503 15.816699,65.265961 
	C15.169379,73.023232 15.034869,80.841194 15.064291,88.631500 
	C15.088899,95.147339 19.274038,99.084320 25.346741,98.972786 
	C31.970934,98.851128 35.763577,95.123001 35.991802,88.368416 
	C36.104080,85.045410 35.761086,81.682808 36.170517,78.406403 
	C36.326427,77.158714 38.012573,76.102249 39.932602,75.063499 
M264.931213,75.077621 
	C269.429779,75.040565 273.938629,75.184692 278.424774,74.929573 
	C288.436584,74.360222 296.624146,67.357918 297.857666,57.976448 
	C298.435638,53.580723 298.380524,49.033978 298.043610,44.598881 
	C297.151733,32.858585 289.365417,25.490610 277.541504,24.892588 
	C274.717926,24.749777 271.881836,24.855204 268.332947,24.450523 
	C261.514740,24.497585 254.666275,24.164007 247.887253,24.703358 
	C241.643799,25.200098 238.006317,29.392849 238.186005,35.256008 
	C238.381927,41.649506 241.178818,47.359722 248.133743,47.156929 
	C248.800827,47.137478 249.486420,47.753094 250.137421,48.061569 
	C247.219589,51.754501 243.585342,54.811787 241.959457,58.707306 
	C237.466843,69.471359 238.364395,80.909012 239.981552,92.121391 
	C240.680176,96.965256 245.506256,99.456245 250.687576,98.925003 
	C256.420624,98.337204 259.676575,95.244469 260.018158,89.737869 
	C260.234497,86.250542 260.294220,82.731239 260.085632,79.246544 
	C259.905731,76.240250 261.045502,74.881592 264.931213,75.077621 
M429.804108,19.970768 
	C426.474915,21.564028 421.919617,22.307920 420.094299,24.942942 
	C417.105499,29.257555 415.923706,34.814716 413.913116,39.821045 
	C413.180573,41.645100 412.728821,44.279625 411.338196,45.018471 
	C405.910919,47.902027 403.271698,51.201466 403.434540,56.359497 
	C403.617371,62.151428 406.450348,65.587639 413.001648,67.701912 
	C413.001648,74.754745 412.847137,81.909164 413.043182,89.053963 
	C413.258179,96.889893 420.713837,101.245010 427.562805,97.649902 
	C431.848022,95.400536 432.595367,91.285782 432.644684,86.992790 
	C432.722717,80.201927 432.665466,73.409515 432.665466,66.899734 
	C433.350098,66.559448 433.501831,66.412224 433.625641,66.432854 
	C438.352722,67.220001 442.793976,66.686394 445.453766,62.236813 
	C447.928497,58.096813 447.846466,53.691460 445.151154,49.490372 
	C442.332794,45.097500 438.340698,45.150131 433.743347,45.875557 
	C426.600189,47.002693 422.038818,43.704300 420.299805,36.519749 
	C420.008453,35.315994 420.861084,33.835331 421.185120,32.482609 
	C422.604706,32.923138 424.318970,33.010166 425.373260,33.888966 
	C426.868713,35.135475 427.790192,37.043236 429.111633,38.531006 
	C433.093872,43.014442 438.158264,43.948204 442.448761,41.090694 
	C446.653809,38.290077 448.091309,32.230759 445.701965,27.248335 
	C442.632996,20.848730 437.145844,19.396971 429.804108,19.970768 
M603.363525,51.940716 
	C601.457520,42.167999 593.885742,44.319939 587.367737,44.722553 
	C586.280151,31.823635 584.953491,29.633345 578.191223,29.230045 
	C571.352478,28.822187 569.735535,31.165421 567.567932,44.624912 
	C559.829407,44.521992 556.837219,46.844490 556.840759,52.951168 
	C556.844421,59.313286 559.713379,61.565739 568.095398,61.448444 
	C568.095398,65.418739 567.999573,69.390930 568.123535,73.356247 
	C568.237488,77.001633 568.259216,80.698952 568.903076,84.268494 
	C570.232056,91.636116 574.623474,96.624329 581.974731,98.338463 
	C589.598206,100.116074 596.936401,99.477730 602.763672,93.434555 
	C606.606934,89.448830 607.033142,83.456223 603.715454,79.272858 
	C600.365784,75.049286 596.412292,75.578178 592.264954,78.308800 
	C589.918396,79.853745 587.411133,79.825699 587.163391,76.432541 
	C586.795898,71.398239 587.068298,66.317238 587.068298,61.214806 
	C599.979187,62.453300 602.127136,61.282074 603.363525,51.940716 
M493.674072,70.780121 
	C499.225769,68.297798 501.321899,65.214310 499.222046,59.893726 
	C497.671570,55.965179 494.939362,51.867050 491.587006,49.407188 
	C482.272064,42.572109 468.150116,43.643406 459.511230,50.973198 
	C450.728760,58.424774 448.054932,72.931686 452.716492,84.487778 
	C459.007355,100.082848 480.177185,102.143341 493.289093,95.938431 
	C498.958466,93.255524 501.148376,88.415863 499.625732,82.851868 
	C498.223053,77.726212 494.533295,75.413750 488.063965,75.879219 
	C483.437439,76.212082 478.837250,77.053879 474.210693,77.197510 
	C470.665466,77.307564 467.812012,75.834595 467.118103,70.939674 
	C475.962189,70.939674 484.395721,70.939674 493.674072,70.780121 
M233.769043,57.500023 
	C233.589615,48.027706 233.762817,38.530830 233.105331,29.091814 
	C232.675339,22.918468 228.624634,19.792936 223.330841,20.165501 
	C217.969513,20.542820 214.191620,24.184690 214.139191,30.082310 
	C213.961594,50.060452 213.927750,70.042824 214.156677,90.019943 
	C214.231628,96.561501 220.186554,100.361534 226.518951,98.612915 
	C231.365295,97.274643 233.678986,93.883034 233.742676,87.471008 
	C233.838608,77.814880 233.768234,68.157104 233.769043,57.500023 
M79.001785,70.500549 
	C79.006599,76.810303 78.895676,83.122894 79.049957,89.428993 
	C79.193794,95.308441 82.979019,99.065918 88.305115,98.970970 
	C94.134537,98.867043 97.939857,95.227348 98.002693,89.239586 
	C98.122910,77.783607 98.105766,66.324905 98.009735,54.868469 
	C97.958321,48.734955 94.232689,45.091824 88.432999,45.140541 
	C82.623695,45.189335 79.149864,48.782444 79.026367,55.055302 
	C78.931602,59.868851 79.003815,64.685684 79.001785,70.500549 
M93.342506,42.282032 
	C98.769020,38.600296 100.166901,32.819656 96.866272,27.710329 
	C94.305679,23.746578 86.787315,22.515499 82.453079,25.350271 
	C78.212929,28.123510 77.108826,34.328403 80.089355,39.105980 
	C83.170830,44.045376 87.928314,43.228432 93.342506,42.282032 
z"/>
<path fill="#6981F2" opacity="1.000000" stroke="none" 
	d="
M430.245911,19.967669 
	C437.145844,19.396971 442.632996,20.848730 445.701965,27.248335 
	C448.091309,32.230759 446.653809,38.290077 442.448761,41.090694 
	C438.158264,43.948204 433.093872,43.014442 429.111633,38.531006 
	C427.790192,37.043236 426.868713,35.135475 425.373260,33.888966 
	C424.318970,33.010166 422.604706,32.923138 421.185120,32.482613 
	C420.861084,33.835331 420.008453,35.315994 420.299805,36.519749 
	C422.038818,43.704300 426.600189,47.002693 433.743347,45.875557 
	C438.340698,45.150131 442.332794,45.097500 445.151154,49.490372 
	C447.846466,53.691460 447.928497,58.096813 445.453766,62.236813 
	C442.793976,66.686394 438.352722,67.220001 433.625641,66.432854 
	C433.501831,66.412224 433.350098,66.559448 432.665466,66.899734 
	C432.665466,73.409515 432.722717,80.201927 432.644684,86.992790 
	C432.595367,91.285782 431.848022,95.400536 427.562805,97.649902 
	C420.713837,101.245010 413.258179,96.889893 413.043182,89.053963 
	C412.847137,81.909164 413.001648,74.754745 413.001648,67.701912 
	C406.450348,65.587639 403.617371,62.151428 403.434540,56.359497 
	C403.271698,51.201466 405.910919,47.902027 411.338196,45.018471 
	C412.728821,44.279625 413.180573,41.645100 413.913116,39.821045 
	C415.923706,34.814716 417.105499,29.257555 420.094299,24.942942 
	C421.919617,22.307920 426.474915,21.564028 430.245911,19.967669 
z"/>
<path fill="#675CF0" opacity="1.000000" stroke="none" 
	d="
M603.460083,52.304047 
	C602.127136,61.282074 599.979187,62.453300 587.068298,61.214806 
	C587.068298,66.317238 586.795898,71.398239 587.163391,76.432541 
	C587.411133,79.825699 589.918396,79.853745 592.264954,78.308800 
	C596.412292,75.578178 600.365784,75.049286 603.715454,79.272858 
	C607.033142,83.456223 606.606934,89.448830 602.763672,93.434555 
	C596.936401,99.477730 589.598206,100.116074 581.974731,98.338463 
	C574.623474,96.624329 570.232056,91.636116 568.903076,84.268494 
	C568.259216,80.698952 568.237488,77.001633 568.123535,73.356247 
	C567.999573,69.390930 568.095398,65.418739 568.095398,61.448444 
	C559.713379,61.565739 556.844421,59.313286 556.840759,52.951168 
	C556.837219,46.844490 559.829407,44.521992 567.567932,44.624912 
	C569.735535,31.165421 571.352478,28.822187 578.191223,29.230045 
	C584.953491,29.633345 586.280151,31.823635 587.367737,44.722553 
	C593.885742,44.319939 601.457520,42.167999 603.460083,52.304047 
z"/>
<path fill="#6875F1" opacity="1.000000" stroke="none" 
	d="
M493.251648,70.859894 
	C484.395721,70.939674 475.962189,70.939674 467.118103,70.939674 
	C467.812012,75.834595 470.665466,77.307564 474.210693,77.197510 
	C478.837250,77.053879 483.437439,76.212082 488.063965,75.879219 
	C494.533295,75.413750 498.223053,77.726212 499.625732,82.851868 
	C501.148376,88.415863 498.958466,93.255524 493.289093,95.938431 
	C480.177185,102.143341 459.007355,100.082848 452.716492,84.487778 
	C448.054932,72.931686 450.728760,58.424774 459.511230,50.973198 
	C468.150116,43.643406 482.272064,42.572109 491.587006,49.407188 
	C494.939362,51.867050 497.671570,55.965179 499.222046,59.893726 
	C501.321899,65.214310 499.225769,68.297798 493.251648,70.859894 
M484.434052,66.909637 
	C482.440948,61.729908 478.037231,61.696064 473.710907,62.281998 
	C470.857635,62.668427 467.993469,63.805325 468.121185,67.597046 
	C473.613098,67.597046 478.858459,67.597046 484.434052,66.909637 
z"/>
<path fill="#6CAAF3" opacity="1.000000" stroke="none" 
	d="
M264.001770,74.955383 
	C261.045502,74.881592 259.905731,76.240250 260.085632,79.246544 
	C260.294220,82.731239 260.234497,86.250542 260.018158,89.737869 
	C259.676575,95.244469 256.420624,98.337204 250.687576,98.925003 
	C245.506256,99.456245 240.680176,96.965256 239.981552,92.121391 
	C238.364395,80.909012 237.466843,69.471359 241.959457,58.707306 
	C243.585342,54.811787 247.219589,51.754501 250.137421,48.061569 
	C249.486420,47.753094 248.800827,47.137478 248.133743,47.156929 
	C241.178818,47.359722 238.381927,41.649506 238.186005,35.256008 
	C238.006317,29.392849 241.643799,25.200098 247.887253,24.703358 
	C254.666275,24.164007 261.514740,24.497585 268.667297,25.083712 
	C268.336060,31.757492 267.670410,37.798084 266.571899,43.900555 
	C258.997650,44.109718 258.997528,44.109718 258.994293,51.265808 
	C258.993896,52.099033 259.099823,52.947693 258.978943,53.762867 
	C258.397247,57.684456 260.346741,59.277531 264.004395,59.807503 
	C264.002594,65.152809 264.002197,70.054092 264.001770,74.955383 
z"/>
<path fill="#6FDFF5" opacity="1.000000" stroke="none" 
	d="
M39.001308,74.958633 
	C38.012573,76.102249 36.326427,77.158714 36.170517,78.406403 
	C35.761086,81.682808 36.104080,85.045410 35.991802,88.368416 
	C35.763577,95.123001 31.970934,98.851128 25.346741,98.972786 
	C19.274038,99.084320 15.088899,95.147339 15.064291,88.631500 
	C15.034869,80.841194 15.169379,73.023232 15.816699,65.265961 
	C16.334190,59.064503 19.250011,53.875843 24.712570,50.391960 
	C25.327108,50.000023 25.672005,49.185307 26.388269,48.242352 
	C25.393688,47.754627 24.756826,47.237255 24.057556,47.131142 
	C17.068218,46.070530 13.697691,41.995602 14.014269,34.886547 
	C14.306432,28.325737 18.249521,24.855562 25.601810,24.799398 
	C31.755510,24.752390 37.909908,24.796696 44.531582,25.290930 
	C44.333809,31.802870 43.668453,37.824448 42.567879,43.903782 
	C38.979733,44.308414 34.945751,42.702328 34.831505,48.533573 
	C34.634377,58.595173 34.441055,58.618610 41.001492,59.732895 
	C40.333038,65.070183 39.667171,70.014404 39.001308,74.958633 
z"/>
<path fill="#6B99F3" opacity="1.000000" stroke="none" 
	d="
M329.000916,70.954239 
	C325.869263,70.954239 322.737610,70.954239 319.351379,70.954239 
	C319.641144,75.872452 322.627808,77.223289 326.131897,77.144844 
	C330.920227,77.037643 335.686523,76.180168 340.477020,75.877785 
	C346.572876,75.493011 350.250885,77.860703 351.633179,82.735046 
	C353.164825,88.136169 351.151947,93.018257 345.877899,95.645088 
	C332.081726,102.516479 308.819489,100.400589 303.892365,81.814346 
	C298.083862,59.903347 311.587830,42.792191 332.720947,45.861710 
	C332.370636,51.668476 331.684448,56.855762 330.571838,62.065540 
	C325.746155,61.853558 321.602692,62.093697 319.402100,68.173599 
	C323.135559,68.173599 326.068939,68.173599 329.001526,68.521309 
	C329.000793,69.564095 329.000854,70.259163 329.000916,70.954239 
z"/>
<path fill="#6DBBF4" opacity="1.000000" stroke="none" 
	d="
M186.002060,98.845291 
	C167.642960,99.615959 155.806885,82.059654 161.811249,62.963371 
	C167.730148,44.138897 192.323883,38.402370 205.533340,52.977085 
	C207.708847,55.377457 209.043015,59.009102 209.626480,62.275269 
	C210.531540,67.341782 206.666443,70.909691 200.586258,71.051041 
	C192.957489,71.228378 185.321472,71.093727 177.677048,71.093727 
	C177.910156,76.228294 178.881577,76.841896 187.584793,77.924088 
	C187.333023,85.235771 186.667542,92.040527 186.002060,98.845291 
M191.166412,63.127491 
	C183.765350,60.718071 179.198273,62.305626 178.309723,67.585152 
	C183.490479,67.585152 188.661774,67.585152 195.027130,67.585152 
	C193.545654,65.680016 192.710037,64.605446 191.166412,63.127491 
z"/>
<path fill="#6FB2F4" opacity="1.000000" stroke="none" 
	d="
M233.768799,58.000023 
	C233.768234,68.157104 233.838608,77.814880 233.742676,87.471008 
	C233.678986,93.883034 231.365295,97.274643 226.518951,98.612915 
	C220.186554,100.361534 214.231628,96.561501 214.156677,90.019943 
	C213.927750,70.042824 213.961594,50.060452 214.139191,30.082310 
	C214.191620,24.184690 217.969513,20.542820 223.330841,20.165501 
	C228.624634,19.792936 232.675339,22.918468 233.105331,29.091814 
	C233.762817,38.530830 233.589615,48.027706 233.768799,58.000023 
z"/>
<path fill="#686AF1" opacity="1.000000" stroke="none" 
	d="
M525.000732,98.580612 
	C510.830353,96.206795 503.027802,85.256294 503.948120,69.034355 
	C504.695282,55.865173 514.983826,45.308456 528.079956,45.109062 
	C533.782410,45.022240 539.740295,45.661190 545.162720,47.331856 
	C551.802979,49.377705 553.981384,54.677628 552.070923,60.679352 
	C550.354736,66.071091 546.080750,67.911652 539.094604,66.516930 
	C535.692932,65.837822 532.228516,65.219597 528.776367,65.116844 
	C525.231445,65.011330 521.408203,65.510452 520.706665,69.999161 
	C519.956177,74.801582 523.321594,76.303268 527.630615,77.502380 
	C526.999695,84.857841 526.000183,91.719223 525.000732,98.580612 
z"/>
<path fill="#6BA3F3" opacity="1.000000" stroke="none" 
	d="
M267.004761,43.838676 
	C267.670410,37.798084 268.336060,31.757492 269.026581,25.281679 
	C271.881836,24.855204 274.717926,24.749777 277.541504,24.892588 
	C289.365417,25.490610 297.151733,32.858585 298.043610,44.598881 
	C298.380524,49.033978 298.435638,53.580723 297.857666,57.976448 
	C296.624146,67.357918 288.436584,74.360222 278.424774,74.929573 
	C273.938629,75.184692 269.429779,75.040565 264.466492,75.016502 
	C264.002197,70.054092 264.002594,65.152809 264.459167,59.718735 
	C267.727966,59.143024 270.545563,59.190464 273.352112,59.036610 
	C277.901703,58.787197 280.532257,56.133274 280.594147,51.913776 
	C280.662537,47.249886 278.223816,44.520435 273.447601,44.083084 
	C271.310455,43.887390 269.153015,43.913326 267.004761,43.838676 
z"/>
<path fill="#6ED8F5" opacity="1.000000" stroke="none" 
	d="
M43.003098,43.846031 
	C43.668453,37.824448 44.333809,31.802870 44.998451,25.336475 
	C70.278641,22.847368 75.883125,37.246223 73.876068,56.972828 
	C72.841270,67.143410 64.525864,74.371010 53.857571,74.944733 
	C49.227180,75.193741 44.574924,75.036316 39.466953,75.011063 
	C39.667171,70.014404 40.333038,65.070183 41.451271,59.646172 
	C44.055260,59.137379 46.208790,59.156204 48.358112,59.070011 
	C53.880493,58.848553 56.175812,56.638107 56.126480,51.664043 
	C56.075867,46.561428 53.816246,44.295563 48.458309,44.019466 
	C46.641754,43.925854 44.821606,43.901844 43.003098,43.846031 
z"/>
<path fill="#6EC4F4" opacity="1.000000" stroke="none" 
	d="
M130.003983,63.997833 
	C130.509918,64.646851 131.082047,65.255104 131.510925,65.951576 
	C134.082260,70.127373 134.901993,70.134987 137.159622,67.031609 
	C135.317245,62.384739 132.946152,58.532284 132.423309,54.443485 
	C131.966949,50.874832 134.014984,47.359669 138.133209,46.019611 
	C142.644211,44.551743 147.013153,44.188831 150.644730,47.946075 
	C153.938324,51.353630 154.661240,55.505398 153.345444,59.955067 
	C151.803986,65.167862 147.987015,68.309692 140.264618,71.242836 
	C144.141510,73.625366 148.490097,75.800255 152.244781,78.734985 
	C156.636154,82.167358 157.435974,87.135391 155.649429,92.264542 
	C154.207733,96.403633 150.885071,98.613014 146.560333,98.960083 
	C141.177444,99.392090 137.163239,96.867302 134.730682,92.242088 
	C132.041168,87.128281 129.774307,81.792183 127.220551,75.840958 
	C128.079819,71.418633 129.041901,67.708237 130.003983,63.997833 
z"/>
<path fill="#6ECAF4" opacity="1.000000" stroke="none" 
	d="
M129.963165,63.633331 
	C129.041901,67.708237 128.079819,71.418633 127.072853,75.525131 
	C122.404572,75.564888 124.105438,78.836540 124.213135,81.015266 
	C124.359093,83.968056 125.197006,86.944969 124.954216,89.845924 
	C124.512657,95.121658 120.986809,98.413254 115.998611,98.978996 
	C109.510178,99.714905 105.465012,97.627937 103.403015,92.480713 
	C101.043106,86.589813 103.714333,79.149612 109.491493,76.223137 
	C112.278297,74.811455 115.318871,73.900734 117.883896,72.903404 
	C114.277679,70.182137 110.109566,67.795448 106.919731,64.470306 
	C100.474236,57.751392 103.484962,47.878689 112.341553,45.705433 
	C117.142616,44.527325 121.014046,46.588673 123.467735,50.416889 
	C126.040497,54.430893 127.804749,58.963104 129.963165,63.633331 
z"/>
<path fill="#6A8FF2" opacity="1.000000" stroke="none" 
	d="
M376.798462,64.989761 
	C376.809937,72.648460 376.999603,80.312141 376.785156,87.964508 
	C376.549011,96.391205 371.153503,100.674927 363.727478,98.604095 
	C358.843719,97.242203 356.847260,93.695023 356.836304,88.854515 
	C356.811737,78.030960 356.754761,67.206711 356.848938,56.383942 
	C356.905304,49.902542 359.770905,46.391743 365.069885,45.846306 
	C371.795532,45.154026 375.114075,47.664291 376.623260,54.619396 
	C376.798889,55.428799 376.841705,56.267025 376.858337,57.818287 
	C376.779846,60.693043 376.789154,62.841400 376.798462,64.989761 
z"/>
<path fill="#6ED0F4" opacity="1.000000" stroke="none" 
	d="
M79.001778,70.000801 
	C79.003815,64.685684 78.931602,59.868851 79.026367,55.055302 
	C79.149864,48.782444 82.623695,45.189335 88.432999,45.140541 
	C94.232689,45.091824 97.958321,48.734955 98.009735,54.868469 
	C98.105766,66.324905 98.122910,77.783607 98.002693,89.239586 
	C97.939857,95.227348 94.134537,98.867043 88.305115,98.970970 
	C82.979019,99.065918 79.193794,95.308441 79.049957,89.428993 
	C78.895676,83.122894 79.006599,76.810303 79.001778,70.000801 
z"/>
<path fill="#6665F1" opacity="1.000000" stroke="none" 
	d="
M525.447632,98.715546 
	C526.000183,91.719223 526.999695,84.857841 528.001343,77.599686 
	C531.089294,76.710648 534.237915,76.460274 537.248901,75.679321 
	C545.265137,73.600182 550.331604,75.176086 552.483154,80.710770 
	C554.914124,86.964233 552.331726,92.276215 545.261963,96.052658 
	C539.110229,99.338715 532.534241,99.200272 525.447632,98.715546 
z"/>
<path fill="#6DB6F4" opacity="1.000000" stroke="none" 
	d="
M186.449753,98.903839 
	C186.667542,92.040527 187.333023,85.235771 187.991882,78.074638 
	C191.903290,77.082222 195.801270,76.228065 199.744461,75.865013 
	C204.739395,75.405121 207.943512,77.881531 209.361740,82.694481 
	C210.851151,87.749054 209.637054,92.938400 205.032013,94.695320 
	C199.281525,96.889244 192.967926,97.607201 186.449753,98.903839 
z"/>
<path fill="#6A8AF2" opacity="1.000000" stroke="none" 
	d="
M376.959900,64.662872 
	C376.789154,62.841400 376.779846,60.693043 376.916992,58.202568 
	C377.876587,56.387867 378.798553,54.963924 379.482727,53.433685 
	C381.630768,48.629295 385.309418,45.764889 390.482819,45.289253 
	C394.681549,44.903229 398.478088,46.303970 400.601349,50.211422 
	C402.991211,54.609573 402.795166,59.152084 400.065948,63.405170 
	C396.529938,68.915489 389.818878,69.418396 384.804077,64.299812 
	C381.968750,61.405815 379.671783,60.903904 376.959900,64.662872 
z"/>
<path fill="#6B95F2" opacity="1.000000" stroke="none" 
	d="
M329.465179,71.019501 
	C329.000854,70.259163 329.000793,69.564095 329.432861,68.462547 
	C331.885315,68.056076 333.905670,68.056076 335.926025,68.056076 
	C336.154541,67.440933 336.383087,66.825798 336.611603,66.210655 
	C334.740479,64.821457 332.869385,63.432259 330.998260,62.043053 
	C331.684448,56.855762 332.370636,51.668476 333.095886,46.023201 
	C341.190552,47.482552 348.821014,49.958706 351.298065,59.272827 
	C353.177399,66.339149 350.083618,70.779121 342.866608,71.069214 
	C338.560944,71.242302 334.242279,71.090508 329.465179,71.019501 
z"/>
<path fill="#70D2F5" opacity="1.000000" stroke="none" 
	d="
M92.971588,42.445244 
	C87.928314,43.228432 83.170830,44.045376 80.089355,39.105980 
	C77.108826,34.328403 78.212929,28.123510 82.453079,25.350271 
	C86.787315,22.515499 94.305679,23.746578 96.866272,27.710329 
	C100.166901,32.819656 98.769020,38.600296 92.971588,42.445244 
z"/>
<path fill="#F7F8FE" opacity="1.000000" stroke="none" 
	d="
M484.268921,67.253342 
	C478.858459,67.597046 473.613098,67.597046 468.121185,67.597046 
	C467.993469,63.805325 470.857635,62.668427 473.710907,62.281998 
	C478.037231,61.696064 482.440948,61.729908 484.268921,67.253342 
z"/>
<path fill="#FDFEFF" opacity="1.000000" stroke="none" 
	d="
M266.571899,43.900558 
	C269.153015,43.913326 271.310455,43.887390 273.447601,44.083084 
	C278.223816,44.520435 280.662537,47.249886 280.594147,51.913776 
	C280.532257,56.133274 277.901703,58.787197 273.352112,59.036610 
	C270.545563,59.190464 267.727966,59.143024 264.460571,59.274723 
	C260.346741,59.277531 258.397247,57.684456 258.978943,53.762867 
	C259.099823,52.947693 258.993896,52.099033 258.994293,51.265808 
	C258.997528,44.109718 258.997650,44.109718 266.571899,43.900558 
z"/>
<path fill="#FDFFFF" opacity="1.000000" stroke="none" 
	d="
M42.567879,43.903786 
	C44.821606,43.901844 46.641754,43.925854 48.458309,44.019466 
	C53.816246,44.295563 56.075867,46.561428 56.126480,51.664043 
	C56.175812,56.638107 53.880493,58.848553 48.358112,59.070011 
	C46.208790,59.156204 44.055260,59.137379 41.453865,59.253113 
	C34.441055,58.618610 34.634377,58.595173 34.831505,48.533573 
	C34.945751,42.702328 38.979733,44.308414 42.567879,43.903786 
z"/>
<path fill="#F7FAFE" opacity="1.000000" stroke="none" 
	d="
M330.571838,62.065544 
	C332.869385,63.432259 334.740479,64.821457 336.611603,66.210655 
	C336.383087,66.825798 336.154541,67.440933 335.926025,68.056076 
	C333.905670,68.056076 331.885315,68.056076 329.433655,68.114838 
	C326.068939,68.173599 323.135559,68.173599 319.402100,68.173599 
	C321.602692,62.093697 325.746155,61.853558 330.571838,62.065544 
z"/>
<path fill="#F9FCFF" opacity="1.000000" stroke="none" 
	d="
M191.520416,63.329185 
	C192.710037,64.605446 193.545654,65.680016 195.027130,67.585152 
	C188.661774,67.585152 183.490479,67.585152 178.309723,67.585152 
	C179.198273,62.305626 183.765350,60.718071 191.520416,63.329185 
z"/>
</svg>