<svg version="1.1" id="Layer_1" xmlns="http://www.w3.org/2000/svg" xmlns:xlink="http://www.w3.org/1999/xlink" x="0px" y="0px"
	 width="100%" viewBox="0 0 512 512" enable-background="new 0 0 512 512" xml:space="preserve">
<path fill="#000000" opacity="1.000000" stroke="none" 
	d="
M284.000000,513.000000 
	C189.356308,513.000000 95.212616,513.000000 1.068919,513.000000 
	C1.045947,512.856323 1.002838,512.712708 1.002835,512.569031 
	C0.999978,342.110626 1.000000,171.652222 1.000000,1.096914 
	C171.560379,1.096914 342.120819,1.096914 512.840637,1.096914 
	C512.840637,171.666550 512.840637,342.333252 512.840637,513.000000 
	C436.795868,513.000000 360.647919,513.000000 284.000000,513.000000 
M452.989288,281.167969 
	C450.678223,277.070587 448.367188,272.973206 445.771973,268.260834 
	C442.552185,264.492493 439.332367,260.724121 435.837372,256.336182 
	C432.860382,253.784470 429.883423,251.232758 426.701874,248.222382 
	C426.542877,248.170013 426.383881,248.117645 425.985382,247.549103 
	C425.664490,247.422745 425.343597,247.296402 424.380371,246.876389 
	C420.601959,244.546951 416.823547,242.217529 412.715302,239.257736 
	C393.324493,229.206284 372.765808,225.879639 351.430145,230.205856 
	C342.587769,231.998810 334.209534,236.080551 324.847290,239.065125 
	C317.858124,244.364136 310.868958,249.663147 303.268738,255.218491 
	C297.901215,262.144897 292.533691,269.071320 286.851501,276.651825 
	C283.957794,283.434265 281.064087,290.216705 278.021271,297.818237 
	C277.069885,303.878113 276.118469,309.937958 275.024139,316.922424 
	C275.072449,321.949219 275.120728,326.975983 275.327515,332.797424 
	C276.868042,339.233368 278.408569,345.669342 280.014435,352.858032 
	C282.707855,358.345703 285.401306,363.833374 288.063293,370.098907 
	C292.692291,376.101166 297.321320,382.103455 302.216156,388.722168 
	C308.127258,393.182861 314.038391,397.643524 320.238281,402.743652 
	C332.242065,410.400238 345.548950,414.571838 359.541534,415.839905 
	C371.003357,416.878601 382.756165,416.726837 393.732330,412.798462 
	C402.447906,409.679199 410.627716,405.062958 419.757996,401.006012 
	C426.545593,395.016571 433.333191,389.027130 440.744751,382.766174 
	C444.847321,376.212494 448.949921,369.658783 453.698303,362.759430 
	C455.839600,356.186188 457.980927,349.612946 460.813477,342.597046 
	C461.486755,337.396454 462.160034,332.195862 462.975555,326.085968 
	C462.594635,321.056030 462.213745,316.026123 461.974426,310.168213 
	C460.927246,305.445343 459.880035,300.722504 458.973877,295.240021 
	C456.999664,290.792114 455.025452,286.344208 452.989288,281.167969 
M287.009857,384.182831 
	C284.408844,380.301697 281.905853,376.348724 279.146149,372.583923 
	C278.336487,371.479401 276.798248,370.908905 275.593964,370.093658 
	C274.730133,371.430786 273.214081,372.725555 273.123962,374.112915 
	C272.846069,378.391357 273.112640,382.705139 273.025299,387.930573 
	C273.025299,393.211578 273.025299,398.492584 273.025299,404.212097 
	C281.927216,402.117706 290.341949,400.137970 299.305511,398.029083 
	C294.656281,393.046539 290.852844,388.970398 287.009857,384.182831 
M270.173706,293.315125 
	C272.710480,287.003784 275.247284,280.692413 277.963318,273.935150 
	C269.405426,275.834900 261.304596,277.633179 253.167007,279.439636 
	C253.167007,284.424103 253.167007,289.210632 253.023026,294.924164 
	C253.023026,300.509857 253.023026,306.095581 253.023026,312.341217 
	C257.942932,311.416656 262.316559,310.594727 266.737640,309.763916 
	C267.797302,304.365265 268.814819,299.181244 270.173706,293.315125 
M78.166168,378.666351 
	C84.872543,385.819702 93.705887,389.274414 102.832222,393.143585 
	C102.832222,387.799072 102.832222,382.899658 102.975922,377.088531 
	C102.928200,373.391968 102.880478,369.695435 102.975853,365.162140 
	C102.265274,363.248962 102.108047,360.326233 100.755264,359.584747 
	C91.239136,354.368896 81.476784,349.602264 72.167351,344.881836 
	C72.167351,350.808960 72.167351,357.904785 72.026016,365.831299 
	C71.547722,371.069000 73.716911,375.035919 78.166168,378.666351 
M102.980301,189.085419 
	C102.988869,186.443161 102.760086,183.773499 103.061363,181.165054 
	C103.518806,177.204636 101.545609,175.918228 97.704224,175.244583 
	C88.854553,170.455353 80.004883,165.666138 71.163620,160.881470 
	C71.163620,166.178467 71.163620,172.093033 71.014778,178.864609 
	C72.056053,182.720703 73.097328,186.576797 74.058533,191.170181 
	C81.400818,200.647705 91.524414,205.858154 102.836639,210.099075 
	C102.836639,203.155579 102.836639,196.579483 102.980301,189.085419 
M344.975952,180.071304 
	C344.975952,173.599091 344.975952,167.126892 344.975952,160.952942 
	C334.594116,166.759140 324.146637,172.602066 313.167114,178.742538 
	C313.167114,179.044861 313.167114,180.522125 313.017914,182.918365 
	C313.067230,187.278549 313.116547,191.638748 313.020172,196.918488 
	C313.020172,201.191040 313.020172,205.463593 313.020172,211.643616 
	C321.773712,206.335236 329.406952,201.706238 337.687256,196.839508 
	C341.744720,192.315155 345.981567,187.871750 344.975952,180.071304 
M162.975082,298.074005 
	C162.975082,293.481598 162.975082,288.889221 162.975082,284.095642 
	C152.449966,283.010773 142.378464,281.972656 132.166672,280.920074 
	C132.166672,287.455505 132.166672,293.226898 132.022812,299.922791 
	C132.022812,304.514618 132.022812,309.106476 132.022812,313.991974 
	C142.533813,315.096313 152.604996,316.154419 162.833328,317.229065 
	C162.833328,310.536865 162.833328,304.767639 162.975082,298.074005 
M92.022858,292.919189 
	C91.933578,305.027740 91.934456,305.024261 104.059914,308.070435 
	C104.524834,308.187225 104.918434,308.603271 105.383224,308.702972 
	C111.107803,309.931061 116.839470,311.126129 122.833549,312.385284 
	C122.833549,304.890900 122.833549,298.446320 122.975410,291.081238 
	C122.975410,287.126617 122.975410,283.171967 122.975410,279.516998 
	C112.388130,277.103790 102.303528,274.805115 92.166397,272.494507 
	C92.166397,279.057556 92.166397,285.529694 92.022858,292.919189 
M263.975677,207.070343 
	C263.975677,201.128021 263.975677,195.185699 263.975677,189.439194 
	C253.486725,190.485443 243.350510,191.496506 233.165848,192.512390 
	C233.165848,197.766525 233.165848,202.881897 233.017883,208.923279 
	C233.017883,214.527222 233.017883,220.131165 233.017883,225.734985 
	C243.537262,224.735947 253.660904,223.774506 263.834167,222.808350 
	C263.834167,217.553818 263.834167,212.775543 263.975677,207.070343 
M52.032955,278.718292 
	C57.950466,291.921082 70.376396,296.131226 82.832367,301.637482 
	C82.832367,293.179535 82.832367,285.586182 82.973396,277.106750 
	C83.036575,268.706177 83.030685,268.722748 75.246712,265.956757 
	C74.035347,265.526306 72.858971,264.945923 71.746239,264.297852 
	C64.979286,260.356598 58.235466,256.375641 51.001350,252.124374 
	C51.001350,258.631866 50.903378,265.010681 51.054844,271.383575 
	C51.107395,273.594574 51.778252,275.790833 52.032955,278.718292 
M223.975204,208.071671 
	C223.975204,203.142838 223.975204,198.214020 223.975204,193.303589 
	C213.032410,193.303589 202.649521,193.303589 192.165802,193.303589 
	C192.165802,199.071121 192.165802,204.533707 192.018051,210.921417 
	C192.018051,215.848480 192.018051,220.775543 192.018051,225.686310 
	C202.971039,225.686310 213.348877,225.686310 223.833679,225.686310 
	C223.833679,219.917313 223.833679,214.457077 223.975204,208.071671 
M192.026047,392.925659 
	C192.026047,398.184418 192.026047,403.443207 192.026047,408.691742 
	C202.965973,408.691742 213.344269,408.691742 223.834442,408.691742 
	C223.834442,403.255249 223.834442,398.127808 223.979202,392.074066 
	C223.979202,386.819000 223.979202,381.563934 223.979202,376.314392 
	C213.028229,376.314392 202.656662,376.314392 192.167435,376.314392 
	C192.167435,381.749725 192.167435,386.874054 192.026047,392.925659 
M172.024155,301.919708 
	C172.017288,306.080200 171.734848,310.269501 172.164368,314.384430 
	C172.300705,315.690552 174.297699,317.792908 175.505417,317.837280 
	C183.815399,318.142456 192.147034,318.141754 200.457352,317.841522 
	C201.675858,317.797516 203.726593,315.717285 203.831512,314.449982 
	C204.200272,309.995300 203.888000,305.484222 203.975784,300.068939 
	C203.975784,294.806244 203.975784,289.543579 203.975784,284.498962 
	C193.053253,284.498962 182.672485,284.498962 172.168137,284.498962 
	C172.168137,290.086914 172.168137,295.540863 172.024155,301.919708 
M112.019539,202.908173 
	C112.019539,206.528915 112.019539,210.149658 112.019539,213.688080 
	C122.441803,216.277481 132.445694,218.762924 142.831955,221.343369 
	C142.831955,214.540237 142.831955,208.266937 142.974075,201.074249 
	C142.982315,197.579651 143.161804,194.072433 142.905518,190.597351 
	C142.816330,189.387939 141.839310,187.423111 140.946030,187.220291 
	C131.491180,185.073456 121.971329,183.212860 112.168030,181.211899 
	C112.168030,188.113403 112.168030,195.053558 112.019539,202.908173 
M243.975082,297.073822 
	C243.975082,291.822876 243.975082,286.571930 243.975082,280.860596 
	C233.364609,281.993530 223.280838,283.070190 213.166718,284.150116 
	C213.166718,289.108856 213.166718,293.554779 213.022903,298.927673 
	C213.022903,304.839813 213.022903,310.751984 213.022903,317.295166 
	C223.668243,316.195435 233.750381,315.153900 243.833267,314.112274 
	C243.833267,308.225372 243.833267,303.113037 243.975082,297.073822 
M304.974396,199.071457 
	C304.974396,193.121246 304.974396,187.171036 304.974396,180.575256 
	C297.430939,182.424316 290.407562,184.121765 283.397980,185.874466 
	C279.995514,186.725220 274.996826,186.667038 273.639343,188.841980 
	C271.924927,191.588837 273.187958,196.194046 273.018250,200.924667 
	C273.018250,207.538864 273.018250,214.153061 273.018250,221.195328 
	C279.602112,219.727371 285.776489,218.593430 291.815033,216.957855 
	C308.489532,212.441483 304.670166,215.981674 304.974396,199.071457 
M183.977585,388.078064 
	C183.977585,383.827026 183.977585,379.576019 183.977585,375.605927 
	C173.109589,374.488251 162.780930,373.426025 152.166092,372.334381 
	C152.166092,377.811157 152.166092,383.406403 152.023911,389.925934 
	C152.015701,391.421295 151.964752,392.917847 152.007919,394.411743 
	C152.108124,397.879761 151.204636,401.961517 152.749878,404.597534 
	C153.779694,406.354309 158.300293,406.320129 161.304871,406.613525 
	C168.745438,407.340210 176.212585,407.794617 183.833328,408.370850 
	C183.833328,401.244202 183.833328,395.122284 183.977585,388.078064 
M233.024887,393.924377 
	C233.024887,398.820892 233.024887,403.717407 233.024887,408.640686 
	C243.607635,407.658936 253.679382,406.724609 263.833984,405.782562 
	C263.833984,401.260132 263.833984,397.130249 263.978790,392.073151 
	C263.978790,385.524750 263.978790,378.976349 263.978790,372.668671 
	C253.415894,373.637726 243.339020,374.562164 233.166031,375.495422 
	C233.166031,381.418671 233.166031,387.209503 233.024887,393.924377 
M142.977020,380.103424 
	C142.982773,377.774689 143.314941,375.379822 142.861984,373.144012 
	C142.621368,371.956390 141.182114,370.412872 140.005859,370.110046 
	C132.016449,368.053040 123.957550,366.263458 115.908257,364.444336 
	C114.737465,364.179749 113.498131,364.218384 112.166252,364.106232 
	C112.166252,370.061005 112.166252,375.531494 112.024651,381.927094 
	C112.024651,386.879883 112.024651,391.832672 112.024651,396.780090 
	C122.402481,399.260742 132.437531,401.659454 142.833221,404.144348 
	C142.833221,396.179016 142.833221,388.590515 142.977020,380.103424 
M183.975082,210.066727 
	C183.975082,204.152145 183.975082,198.237579 183.975082,192.552216 
	C173.099335,191.502945 162.741287,190.503616 152.167130,189.483429 
	C152.167130,196.122833 152.167130,203.058243 152.018951,210.914978 
	C152.018951,214.845108 152.018951,218.775253 152.018951,222.835480 
	C162.853455,223.867355 173.193649,224.852173 183.833252,225.865494 
	C183.833252,220.864655 183.833252,215.928970 183.975082,210.066727 
M122.644165,225.183044 
	C108.569847,222.418793 95.102943,217.650772 83.027908,210.081238 
	C78.025650,206.945450 74.908669,208.753479 71.018044,210.504501 
	C69.707481,211.094330 68.620880,212.163467 67.379799,212.929031 
	C61.140850,216.777527 54.880848,220.594223 52.019836,228.768326 
	C52.069130,231.178680 52.118423,233.589020 52.046955,236.509811 
	C52.092075,236.678741 52.137196,236.847656 52.126411,237.535767 
	C52.406742,237.726074 52.687073,237.916382 53.004265,238.699875 
	C53.299530,239.146606 53.594795,239.593338 54.126614,240.626526 
	C54.711376,241.431076 55.296143,242.235626 56.158653,243.664566 
	C59.403122,246.125473 62.647587,248.586380 66.219826,251.683746 
	C70.129852,253.491089 74.039879,255.298447 78.295456,257.749268 
	C84.847008,259.867950 91.398567,261.986633 98.337494,264.771912 
	C118.307632,270.464355 138.795975,273.358124 159.408356,274.812866 
	C173.017426,275.773315 186.773270,275.514465 200.419235,274.868622 
	C216.639359,274.100922 232.879089,272.858551 248.981140,270.807770 
	C259.145050,269.513275 269.072601,266.363068 279.869934,264.004089 
	C284.920380,263.452393 287.993073,260.355743 290.716278,255.791855 
	C292.178436,254.207184 293.640625,252.622513 295.710876,250.784943 
	C297.823334,248.559738 299.935822,246.334534 302.632050,243.869247 
	C303.434143,243.285065 304.236267,242.700867 305.665985,241.835754 
	C308.610077,239.502014 311.554169,237.168259 315.255371,234.919647 
	C326.271149,228.828842 326.420868,227.482300 317.064117,218.583084 
	C316.951355,218.475830 316.775543,218.434830 316.590363,218.343842 
	C299.892883,224.539017 282.686096,228.817780 264.176208,231.051147 
	C256.440979,232.034164 248.725342,233.233856 240.964706,233.936249 
	C233.907990,234.574936 226.801773,234.661163 219.718475,235.013123 
	C213.469421,235.323608 207.207718,236.098175 200.976868,235.894638 
	C190.653275,235.557449 180.349976,234.599380 169.569000,233.193497 
	C166.758972,233.113632 163.888916,233.376022 161.149200,232.895401 
	C148.428619,230.663818 135.744186,228.226334 122.644165,225.183044 
M268.960144,345.235596 
	C268.346405,343.144348 267.732697,341.053101 267.017334,338.086243 
	C266.622559,335.057678 266.227753,332.029083 265.975433,328.097931 
	C265.975433,325.139618 265.975433,322.181305 265.975433,319.163910 
	C264.843628,319.098145 264.175873,318.947662 263.542938,319.038940 
	C247.567673,321.342346 231.658035,324.396210 215.604401,325.768341 
	C202.516556,326.886993 189.242538,326.389679 176.078125,325.892456 
	C162.785782,325.390381 149.500565,324.268250 136.259369,322.945862 
	C117.613960,321.083679 99.423271,317.016815 81.824013,310.459229 
	C81.014565,310.157593 79.818230,310.129395 79.083412,310.512909 
	C73.011955,313.681793 70.177689,323.187317 73.221054,330.681854 
	C76.109253,333.803650 78.997452,336.925415 82.210510,340.676514 
	C86.214554,342.931091 90.218597,345.185669 94.814034,347.928436 
	C101.520767,350.332153 108.227509,352.735901 115.328705,355.818665 
	C123.713768,357.618317 132.028336,359.919250 140.498962,361.110535 
	C156.817169,363.405457 173.191711,366.261841 189.601486,366.702240 
	C210.546158,367.264313 231.558731,365.874512 252.521027,364.881927 
	C259.692230,364.542389 266.799957,362.863068 274.007111,361.785370 
	C272.805328,358.459778 271.819031,355.730408 270.735931,352.267731 
	C270.101624,350.178436 269.467316,348.089172 268.960144,345.235596 
M82.264069,124.992111 
	C80.470863,126.647369 78.677650,128.302628 76.256134,130.218613 
	C75.132324,132.131470 74.008522,134.044327 72.224838,136.304703 
	C71.872154,138.202805 71.519478,140.100906 71.024986,142.710266 
	C71.644913,144.154739 72.264847,145.599197 72.992638,147.751602 
	C74.958450,149.849747 76.924263,151.947876 79.161186,154.676910 
	C82.086929,156.831543 85.012672,158.986176 88.249519,161.787415 
	C94.129715,164.208496 100.009918,166.629578 106.256050,169.732071 
	C117.534103,172.505356 128.771149,175.460876 140.099548,178.010406 
	C158.363342,182.120789 176.911987,183.898926 195.620056,183.982254 
	C208.262070,184.038574 220.946838,184.618988 233.535263,183.790817 
	C246.682098,182.925919 259.863495,181.311356 272.794861,178.809830 
	C285.366425,176.377899 297.640137,172.406281 310.815338,169.009384 
	C316.558624,166.375900 322.301941,163.742416 328.761871,161.017761 
	C331.523438,159.051575 334.285034,157.085388 337.677399,154.846848 
	C339.490051,152.245590 341.302734,149.644318 343.755829,146.719696 
	C344.114899,145.146149 344.473969,143.572617 344.979034,141.314331 
	C344.597137,139.836136 344.215271,138.357941 343.958771,136.100372 
	C342.590179,134.070267 341.221588,132.040161 339.836273,129.318176 
	C337.238068,127.506157 334.639832,125.694138 331.806580,123.286560 
	C330.165161,122.402115 328.523773,121.517677 326.243958,120.064514 
	C317.885895,116.765015 309.527863,113.465515 300.502136,109.959427 
	C300.251038,109.741295 300.034210,109.407463 299.744019,109.321541 
	C280.712372,103.687263 261.193085,100.457909 241.470184,99.158234 
	C224.460205,98.037331 207.358276,98.208267 190.294785,98.058159 
	C184.218170,98.004700 178.092438,98.347198 172.064209,99.105659 
	C160.949661,100.504074 149.815918,101.963203 138.832138,104.120041 
	C130.075623,105.839523 121.530212,108.634071 112.104256,110.992279 
	C105.054642,113.958359 98.005028,116.924431 90.233681,119.993889 
	C87.806183,121.626404 85.378685,123.258919 82.264069,124.992111 
z"/>
<path fill="#C530F8" opacity="1.000000" stroke="none" 
	d="
M310.044647,169.110779 
	C297.640137,172.406281 285.366425,176.377899 272.794861,178.809830 
	C259.863495,181.311356 246.682098,182.925919 233.535263,183.790817 
	C220.946838,184.618988 208.262070,184.038574 195.620056,183.982254 
	C176.911987,183.898926 158.363342,182.120789 140.099548,178.010406 
	C128.771149,175.460876 117.534103,172.505356 106.463058,169.222397 
	C108.633942,168.475174 110.597687,168.031128 112.561684,168.030014 
	C176.487457,167.993729 240.413254,167.990463 304.338989,168.046661 
	C306.241180,168.048340 308.142761,168.740524 310.044647,169.110779 
z"/>
<path fill="#CC29F9" opacity="1.000000" stroke="none" 
	d="
M310.429993,169.060089 
	C308.142761,168.740524 306.241180,168.048340 304.338989,168.046661 
	C240.413254,167.990463 176.487457,167.993729 112.561684,168.030014 
	C110.597687,168.031128 108.633942,168.475174 106.280098,168.881683 
	C100.009918,166.629578 94.129715,164.208496 88.312973,161.127747 
	C90.226715,159.978821 92.071159,159.094025 93.928261,159.066650 
	C103.589211,158.924179 113.253380,159.000031 122.916428,159.000015 
	C188.891739,159.000015 254.867065,158.977814 320.842194,159.088928 
	C323.244354,159.092972 325.644287,160.405960 328.045258,161.108917 
	C322.301941,163.742416 316.558624,166.375900 310.429993,169.060089 
z"/>
<path fill="#EB0FFC" opacity="1.000000" stroke="none" 
	d="
M301.169800,110.166016 
	C309.527863,113.465515 317.885895,116.765015 325.967285,120.410721 
	C324.029877,120.835899 322.369171,120.983665 320.708435,120.983963 
	C245.858261,120.997154 171.008102,121.004875 96.157959,120.952858 
	C94.423538,120.951653 92.689583,120.260071 90.955414,119.890503 
	C98.005028,116.924431 105.054642,113.958359 112.887627,111.140480 
	C115.302101,111.525475 116.933075,111.968330 118.564316,111.969307 
	C177.663483,112.004616 236.762695,112.014679 295.861725,111.921700 
	C297.631989,111.918915 299.400482,110.776894 301.169800,110.166016 
z"/>
<path fill="#F109FD" opacity="1.000000" stroke="none" 
	d="
M300.835968,110.062729 
	C299.400482,110.776894 297.631989,111.918915 295.861725,111.921700 
	C236.762695,112.014679 177.663483,112.004616 118.564316,111.969307 
	C116.933075,111.968330 115.302101,111.525475 113.281052,111.120041 
	C121.530212,108.634071 130.075623,105.839523 138.832138,104.120041 
	C149.815918,101.963203 160.949661,100.504074 172.064209,99.105659 
	C178.092438,98.347198 184.218170,98.004700 190.294785,98.058159 
	C207.358276,98.208267 224.460205,98.037331 241.470184,99.158234 
	C261.193085,100.457909 280.712372,103.687263 299.744019,109.321541 
	C300.034210,109.407463 300.251038,109.741295 300.835968,110.062729 
z"/>
<path fill="#5A8DEA" opacity="1.000000" stroke="none" 
	d="
M265.832977,329.000519 
	C266.227753,332.029083 266.622559,335.057678 266.591888,338.533264 
	C207.696594,338.986847 149.226730,338.978210 90.756943,339.044495 
	C87.799469,339.047852 84.842728,339.698151 81.885651,340.047211 
	C78.997452,336.925415 76.109253,333.803650 73.604034,330.314575 
	C76.950745,329.631561 79.914246,329.042847 82.878258,329.040253 
	C143.863129,328.986877 204.848053,329.000336 265.832977,329.000519 
z"/>
<path fill="#4A9AE8" opacity="1.000000" stroke="none" 
	d="
M270.832703,353.001038 
	C271.819031,355.730408 272.805328,358.459778 274.007111,361.785370 
	C266.799957,362.863068 259.692230,364.542389 252.521027,364.881927 
	C231.558731,365.874512 210.546158,367.264313 189.601486,366.702240 
	C173.191711,366.261841 156.817169,363.405457 140.498962,361.110535 
	C132.028336,359.919250 123.713768,357.618317 115.351784,355.143555 
	C117.557877,353.978943 119.740211,353.065765 121.924011,353.062225 
	C171.560150,352.981720 221.196442,353.000702 270.832703,353.001038 
z"/>
<path fill="#945AF2" opacity="1.000000" stroke="none" 
	d="
M65.892052,251.047287 
	C62.647587,248.586380 59.403122,246.125473 56.495995,243.342743 
	C136.671082,243.014023 216.508820,242.999466 296.346527,243.046616 
	C298.247314,243.047745 300.147705,243.739624 302.048279,244.109329 
	C299.935822,246.334534 297.823334,248.559738 294.989288,250.832092 
	C291.973724,250.586166 289.679932,250.038467 287.385773,250.037018 
	C215.827515,249.991882 144.269226,249.990387 72.710960,250.044037 
	C70.437744,250.045746 68.165009,250.698196 65.892052,251.047287 
z"/>
<path fill="#8766F0" opacity="1.000000" stroke="none" 
	d="
M279.106171,264.045258 
	C269.072601,266.363068 259.145050,269.513275 248.981140,270.807770 
	C232.879089,272.858551 216.639359,274.100922 200.419235,274.868622 
	C186.773270,275.514465 173.017426,275.773315 159.408356,274.812866 
	C138.795975,273.358124 118.307632,270.464355 98.469673,264.173492 
	C100.400902,263.383362 102.199875,263.025116 103.999023,263.024170 
	C160.094345,262.994659 216.189682,262.987762 272.284973,263.044159 
	C274.559021,263.046448 276.832458,263.696838 279.106171,264.045258 
z"/>
<path fill="#D91EFA" opacity="1.000000" stroke="none" 
	d="
M344.833038,141.999069 
	C344.473969,143.572617 344.114899,145.146149 342.959656,146.871094 
	C252.403931,147.029541 162.644348,147.036606 72.884773,147.043671 
	C72.264847,145.599197 71.644913,144.154739 71.518295,142.353668 
	C80.961815,141.664703 89.911339,141.068634 98.862358,141.045364 
	C138.959244,140.941132 179.057083,140.870148 219.153549,141.035736 
	C261.047333,141.208740 302.939941,141.666046 344.833038,141.999069 
z"/>
<path fill="#DF19FB" opacity="1.000000" stroke="none" 
	d="
M72.884720,135.957184 
	C74.008522,134.044327 75.132324,132.131470 76.988617,130.167694 
	C80.183731,130.411194 82.646217,130.961594 85.109001,130.962921 
	C167.398331,131.007660 249.687668,131.009155 331.976990,130.958389 
	C334.602539,130.956772 337.227692,130.340027 339.853027,130.010056 
	C341.221588,132.040161 342.590179,134.070267 343.373474,136.512833 
	C254.594711,136.949631 166.401230,136.980072 78.207779,136.954849 
	C76.433327,136.954330 74.659065,136.304214 72.884720,135.957184 
z"/>
<path fill="#D522FA" opacity="1.000000" stroke="none" 
	d="
M72.938705,147.397644 
	C162.644348,147.036606 252.403931,147.029541 342.639465,147.032776 
	C341.302734,149.644318 339.490051,152.245590 337.222260,154.605316 
	C334.769257,153.909210 332.771729,153.058716 330.773468,153.057083 
	C249.084991,152.990356 167.396423,152.991592 85.707901,153.043884 
	C83.435081,153.045334 81.162682,153.697357 78.890083,154.046005 
	C76.924263,151.947876 74.958450,149.849747 72.938705,147.397644 
z"/>
<path fill="#D125F9" opacity="1.000000" stroke="none" 
	d="
M79.025635,154.361450 
	C81.162682,153.697357 83.435081,153.045334 85.707901,153.043884 
	C167.396423,152.991592 249.084991,152.990356 330.773468,153.057083 
	C332.771729,153.058716 334.769257,153.909210 336.906860,154.741486 
	C334.285034,157.085388 331.523438,159.051575 328.403564,161.063354 
	C325.644287,160.405960 323.244354,159.092972 320.842194,159.088928 
	C254.867065,158.977814 188.891739,159.000015 122.916428,159.000015 
	C113.253380,159.000031 103.589211,158.924179 93.928261,159.066650 
	C92.071159,159.094025 90.226715,159.978821 88.157425,160.804428 
	C85.012672,158.986176 82.086929,156.831543 79.025635,154.361450 
z"/>
<path fill="#8D61F0" opacity="1.000000" stroke="none" 
	d="
M279.488037,264.024658 
	C276.832458,263.696838 274.559021,263.046448 272.284973,263.044159 
	C216.189682,262.987762 160.094345,262.994659 103.999023,263.024170 
	C102.199875,263.025116 100.400902,263.383362 98.275986,263.840210 
	C91.398567,261.986633 84.847008,259.867950 78.448517,257.162354 
	C80.066856,256.383698 81.532097,256.024597 82.997414,256.024292 
	C152.037689,256.009888 221.077972,256.026642 290.118256,256.039825 
	C287.993073,260.355743 284.920380,263.452393 279.488037,264.024658 
z"/>
<path fill="#905EF1" opacity="1.000000" stroke="none" 
	d="
M290.417267,255.915833 
	C221.077972,256.026642 152.037689,256.009888 82.997414,256.024292 
	C81.532097,256.024597 80.066856,256.383698 78.275742,256.840637 
	C74.039879,255.298447 70.129852,253.491089 66.055939,251.365509 
	C68.165009,250.698196 70.437744,250.045746 72.710960,250.044037 
	C144.269226,249.990387 215.827515,249.991882 287.385773,250.037018 
	C289.679932,250.038467 291.973724,250.586166 294.685242,250.958527 
	C293.640625,252.622513 292.178436,254.207184 290.417267,255.915833 
z"/>
<path fill="#9B54F2" opacity="1.000000" stroke="none" 
	d="
M53.890060,240.040070 
	C53.594795,239.593338 53.299530,239.146606 52.890541,238.197571 
	C52.622936,237.430267 52.424767,237.204025 52.182312,237.016586 
	C52.137196,236.847656 52.092075,236.678741 52.565254,236.254715 
	C89.447571,235.999680 125.811745,236.042953 162.175262,235.909470 
	C164.798630,235.899857 167.417282,234.601837 170.038116,233.902863 
	C180.349976,234.599380 190.653275,235.557449 200.976868,235.894638 
	C207.207718,236.098175 213.469421,235.323608 219.718475,235.013123 
	C226.801773,234.661163 233.907990,234.574936 240.964706,233.936249 
	C248.725342,233.233856 256.440979,232.034164 264.744873,231.461868 
	C267.011505,232.248413 268.707245,232.937790 270.407837,232.950104 
	C283.152618,233.042389 295.899384,232.923431 308.642822,233.083344 
	C310.601654,233.107925 312.546783,234.223511 314.498260,234.834503 
	C311.554169,237.168259 308.610077,239.502014 305.214539,241.597992 
	C303.095520,240.906815 301.428253,240.057785 299.760437,240.056732 
	C217.803665,240.005280 135.846863,240.026718 53.890060,240.040070 
z"/>
<path fill="#6187EB" opacity="1.000000" stroke="none" 
	d="
M265.904205,328.549225 
	C204.848053,329.000336 143.863129,328.986877 82.878258,329.040253 
	C79.914246,329.042847 76.950745,329.631561 73.576897,329.973206 
	C70.177689,323.187317 73.011955,313.681793 79.083412,310.512909 
	C79.818230,310.129395 81.014565,310.157593 81.824013,310.459229 
	C99.423271,317.016815 117.613960,321.083679 136.259369,322.945862 
	C149.500565,324.268250 162.785782,325.390381 176.078125,325.892456 
	C189.242538,326.389679 202.516556,326.886993 215.604401,325.768341 
	C231.658035,324.396210 247.567673,321.342346 263.542938,319.038940 
	C264.175873,318.947662 264.843628,319.098145 265.975433,319.163910 
	C265.975433,322.181305 265.975433,325.139618 265.904205,328.549225 
z"/>
<path fill="#E316FB" opacity="1.000000" stroke="none" 
	d="
M339.844666,129.664124 
	C337.227692,130.340027 334.602539,130.956772 331.976990,130.958389 
	C249.687668,131.009155 167.398331,131.007660 85.109001,130.962921 
	C82.646217,130.961594 80.183731,130.411194 77.302773,130.037323 
	C78.677650,128.302628 80.470863,126.647369 82.932922,125.207512 
	C85.566078,125.615273 87.530235,125.973709 89.494705,125.975426 
	C127.427834,126.008591 165.361008,126.000008 203.294159,126.000000 
	C244.222031,125.999985 285.149994,126.029602 326.077515,125.909927 
	C328.067505,125.904114 330.053680,124.588051 332.041626,123.882118 
	C334.639832,125.694138 337.238068,127.506157 339.844666,129.664124 
z"/>
<path fill="#5492E9" opacity="1.000000" stroke="none" 
	d="
M82.048080,340.361877 
	C84.842728,339.698151 87.799469,339.047852 90.756943,339.044495 
	C149.226730,338.978210 207.696594,338.986847 266.642700,338.971069 
	C267.732697,341.053101 268.346405,343.144348 268.438660,345.617798 
	C213.116333,346.000031 158.315475,345.976624 103.514778,346.061493 
	C100.416695,346.066284 97.319977,346.960205 94.222633,347.440247 
	C90.218597,345.185669 86.214554,342.931091 82.048080,340.361877 
z"/>
<path fill="#E712FC" opacity="1.000000" stroke="none" 
	d="
M331.924103,123.584335 
	C330.053680,124.588051 328.067505,125.904114 326.077515,125.909927 
	C285.149994,126.029602 244.222031,125.999985 203.294159,126.000000 
	C165.361008,126.000008 127.427834,126.008591 89.494705,125.975426 
	C87.530235,125.973709 85.566078,125.615273 83.276489,125.157181 
	C85.378685,123.258919 87.806183,121.626404 90.594543,119.942200 
	C92.689583,120.260071 94.423538,120.951653 96.157959,120.952858 
	C171.008102,121.004875 245.858261,120.997154 320.708435,120.983963 
	C322.369171,120.983665 324.029877,120.835899 326.286499,120.695084 
	C328.523773,121.517677 330.165161,122.402115 331.924103,123.584335 
z"/>
<path fill="#5095E9" opacity="1.000000" stroke="none" 
	d="
M94.518326,347.684357 
	C97.319977,346.960205 100.416695,346.066284 103.514778,346.061493 
	C158.315475,345.976624 213.116333,346.000031 268.375061,345.999939 
	C269.467316,348.089172 270.101624,350.178436 270.784302,352.634399 
	C221.196442,353.000702 171.560150,352.981720 121.924011,353.062225 
	C119.740211,353.065765 117.557877,353.978943 115.154556,354.804016 
	C108.227509,352.735901 101.520767,350.332153 94.518326,347.684357 
z"/>
<path fill="#2AB7E4" opacity="1.000000" stroke="none" 
	d="
M419.045380,401.111328 
	C410.627716,405.062958 402.447906,409.679199 393.732330,412.798462 
	C382.756165,416.726837 371.003357,416.878601 359.541534,415.839905 
	C345.548950,414.571838 332.242065,410.400238 320.419983,402.159058 
	C327.959167,401.382874 335.327087,401.362549 342.668732,400.912781 
	C345.489716,400.739990 348.250732,399.588501 351.469910,398.934509 
	C360.445557,399.324860 368.991577,399.928131 377.534668,399.888275 
	C381.661896,399.869049 385.783508,398.640808 390.296692,398.127441 
	C398.479797,398.529816 406.280212,398.651642 414.062897,399.088623 
	C415.756226,399.183716 417.386230,400.407440 419.045380,401.111328 
z"/>
<path fill="#DC1CFB" opacity="1.000000" stroke="none" 
	d="
M72.554779,136.130951 
	C74.659065,136.304214 76.433327,136.954330 78.207779,136.954849 
	C166.401230,136.980072 254.594711,136.949631 343.310791,136.902527 
	C344.215271,138.357941 344.597137,139.836136 344.906036,141.656708 
	C302.939941,141.666046 261.047333,141.208740 219.153549,141.035736 
	C179.057083,140.870148 138.959244,140.941132 98.862358,141.045364 
	C89.911339,141.068634 80.961815,141.664703 71.589203,141.998032 
	C71.519478,140.100906 71.872154,138.202805 72.554779,136.130951 
z"/>
<path fill="#945AF2" opacity="1.000000" stroke="none" 
	d="
M426.224854,248.065277 
	C426.383881,248.117645 426.542877,248.170013 426.278900,248.517944 
	C422.392395,248.875656 418.913116,248.752258 415.469025,249.043961 
	C410.445923,249.469421 405.448059,250.193344 400.183105,250.592224 
	C390.841003,248.263550 381.854095,245.127716 372.647827,244.222595 
	C356.273193,242.612747 341.210754,247.821564 326.710236,256.016357 
	C318.809265,255.654434 311.344513,255.308289 303.879761,254.962143 
	C310.868958,249.663147 317.858124,244.364136 325.513031,239.466522 
	C327.914398,240.244980 329.649109,240.945663 331.385773,240.950500 
	C356.869263,241.021408 382.353058,241.021271 407.836548,240.952042 
	C409.573669,240.947327 411.308990,240.258667 413.045135,239.888092 
	C416.823547,242.217529 420.601959,244.546951 424.872742,247.207458 
	C425.651703,247.714111 425.938263,247.889694 426.224854,248.065277 
z"/>
<path fill="#9D52F2" opacity="1.000000" stroke="none" 
	d="
M169.803558,233.548187 
	C167.417282,234.601837 164.798630,235.899857 162.175262,235.909470 
	C125.811745,236.042953 89.447571,235.999680 52.625633,235.999496 
	C52.118423,233.589020 52.069130,231.178680 52.551533,228.383636 
	C74.583214,227.999115 96.083549,228.050888 117.582573,227.906815 
	C119.408470,227.894577 121.225601,226.574860 123.046806,225.862549 
	C135.744186,228.226334 148.428619,230.663818 161.149200,232.895401 
	C163.888916,233.376022 166.758972,233.113632 169.803558,233.548187 
z"/>
<path fill="#9B54F2" opacity="1.000000" stroke="none" 
	d="
M412.880219,239.572906 
	C411.308990,240.258667 409.573669,240.947327 407.836548,240.952042 
	C382.353058,241.021271 356.869263,241.021408 331.385773,240.950500 
	C329.649109,240.945663 327.914398,240.244980 325.899506,239.494659 
	C334.209534,236.080551 342.587769,231.998810 351.430145,230.205856 
	C372.765808,225.879639 393.324493,229.206284 412.880219,239.572906 
z"/>
<path fill="#A54CF4" opacity="1.000000" stroke="none" 
	d="
M122.845490,225.522797 
	C121.225601,226.574860 119.408470,227.894577 117.582573,227.906815 
	C96.083549,228.050888 74.583214,227.999115 52.625294,227.998505 
	C54.880848,220.594223 61.140850,216.777527 67.379799,212.929031 
	C68.620880,212.163467 69.707481,211.094330 71.018044,210.504501 
	C74.908669,208.753479 78.025650,206.945450 83.027908,210.081238 
	C95.102943,217.650772 108.569847,222.418793 122.845490,225.522797 
z"/>
<path fill="#9857F2" opacity="1.000000" stroke="none" 
	d="
M54.008339,240.333298 
	C135.846863,240.026718 217.803665,240.005280 299.760437,240.056732 
	C301.428253,240.057785 303.095520,240.906815 304.900696,241.738464 
	C304.236267,242.700867 303.434143,243.285065 302.340149,243.989288 
	C300.147705,243.739624 298.247314,243.047745 296.346527,243.046616 
	C216.508820,242.999466 136.671082,243.014023 56.357121,243.030548 
	C55.296143,242.235626 54.711376,241.431076 54.008339,240.333298 
z"/>
<path fill="#B33FF5" opacity="1.000000" stroke="none" 
	d="
M152.167130,209.993652 
	C152.167130,203.058243 152.167130,196.122833 152.167130,189.483429 
	C162.741287,190.503616 173.099335,191.502945 183.975082,192.552216 
	C183.975082,198.237579 183.975082,204.152145 183.504974,210.448380 
	C181.238129,210.553345 179.443634,210.055908 177.644257,210.037582 
	C169.152603,209.951065 160.659637,209.995743 152.167130,209.993652 
z"/>
<path fill="#35ADE5" opacity="1.000000" stroke="none" 
	d="
M142.833221,381.002014 
	C142.833221,388.590515 142.833221,396.179016 142.833221,404.144348 
	C132.437531,401.659454 122.402481,399.260742 112.024651,396.780090 
	C112.024651,391.832672 112.024651,386.879883 112.553436,381.464081 
	C122.999229,381.001373 132.916229,381.001678 142.833221,381.002014 
z"/>
<path fill="#39A9E6" opacity="1.000000" stroke="none" 
	d="
M233.166031,393.000336 
	C233.166031,387.209503 233.166031,381.418671 233.166031,375.495422 
	C243.339020,374.562164 253.415894,373.637726 263.978790,372.668671 
	C263.978790,378.976349 263.978790,385.524750 263.448364,392.536438 
	C253.000656,392.999908 243.083344,393.000122 233.166031,393.000336 
z"/>
<path fill="#32B0E5" opacity="1.000000" stroke="none" 
	d="
M183.833328,389.000366 
	C183.833328,395.122284 183.833328,401.244202 183.833328,408.370850 
	C176.212585,407.794617 168.745438,407.340210 161.304871,406.613525 
	C158.300293,406.320129 153.779694,406.354309 152.749878,404.597534 
	C151.204636,401.961517 152.108124,397.879761 152.007919,394.411743 
	C151.964752,392.917847 152.015701,391.421295 152.553009,389.463287 
	C163.332504,389.000549 173.582916,389.000458 183.833328,389.000366 
z"/>
<path fill="#AE44F5" opacity="1.000000" stroke="none" 
	d="
M304.832184,199.998795 
	C304.670166,215.981674 308.489532,212.441483 291.815033,216.957855 
	C285.776489,218.593430 279.602112,219.727371 273.018250,221.195328 
	C273.018250,214.153061 273.018250,207.538864 273.550476,200.461853 
	C284.332520,199.998978 294.582336,199.998886 304.832184,199.998795 
z"/>
<path fill="#6C7DEC" opacity="1.000000" stroke="none" 
	d="
M243.833267,298.000671 
	C243.833267,303.113037 243.833267,308.225372 243.833267,314.112274 
	C233.750381,315.153900 223.668243,316.195435 213.022903,317.295166 
	C213.022903,310.751984 213.022903,304.839813 213.552765,298.464172 
	C223.999512,298.000671 233.916382,298.000671 243.833267,298.000671 
z"/>
<path fill="#B93AF6" opacity="1.000000" stroke="none" 
	d="
M112.168030,201.993713 
	C112.168030,195.053558 112.168030,188.113403 112.168030,181.211899 
	C121.971329,183.212860 131.491180,185.073456 140.946030,187.220291 
	C141.839310,187.423111 142.816330,189.387939 142.905518,190.597351 
	C143.161804,194.072433 142.982315,197.579651 142.445099,201.535217 
	C132.000076,201.995346 122.084053,201.994537 112.168030,201.993713 
z"/>
<path fill="#6C7DEC" opacity="1.000000" stroke="none" 
	d="
M203.834198,300.994568 
	C203.888000,305.484222 204.200272,309.995300 203.831512,314.449982 
	C203.726593,315.717285 201.675858,317.797516 200.457352,317.841522 
	C192.147034,318.141754 183.815399,318.142456 175.505417,317.837280 
	C174.297699,317.792908 172.300705,315.690552 172.164368,314.384430 
	C171.734848,310.269501 172.017288,306.080200 172.554016,301.458130 
	C183.333969,300.995850 193.584091,300.995209 203.834198,300.994568 
z"/>
<path fill="#39A9E6" opacity="1.000000" stroke="none" 
	d="
M192.167435,391.998352 
	C192.167435,386.874054 192.167435,381.749725 192.167435,376.314392 
	C202.656662,376.314392 213.028229,376.314392 223.979202,376.314392 
	C223.979202,381.563934 223.979202,386.819000 223.448792,392.536865 
	C212.668060,392.665894 202.417755,392.332123 192.167435,391.998352 
z"/>
<path fill="#A849F4" opacity="1.000000" stroke="none" 
	d="
M223.833679,208.996841 
	C223.833679,214.457077 223.833679,219.917313 223.833679,225.686310 
	C213.348877,225.686310 202.971039,225.686310 192.018051,225.686310 
	C192.018051,220.775543 192.018051,215.848480 192.502136,210.433685 
	C203.268723,209.629578 213.551193,209.313202 223.833679,208.996841 
z"/>
<path fill="#8766F0" opacity="1.000000" stroke="none" 
	d="
M52.166702,277.993835 
	C51.778252,275.790833 51.107395,273.594574 51.054844,271.383575 
	C50.903378,265.010681 51.001350,258.631866 51.001350,252.124374 
	C58.235466,256.375641 64.979286,260.356598 71.746239,264.297852 
	C72.858971,264.945923 74.035347,265.526306 75.246712,265.956757 
	C83.030685,268.722748 83.036575,268.706177 82.444977,277.551117 
	C71.999947,277.994934 62.083324,277.994385 52.166702,277.993835 
z"/>
<path fill="#B33FF5" opacity="1.000000" stroke="none" 
	d="
M233.165848,207.997284 
	C233.165848,202.881897 233.165848,197.766525 233.165848,192.512390 
	C243.350510,191.496506 253.486725,190.485443 263.975677,189.439194 
	C263.975677,195.185699 263.975677,201.128021 263.446869,207.534714 
	C253.000656,207.998474 243.083252,207.997879 233.165848,207.997284 
z"/>
<path fill="#707AED" opacity="1.000000" stroke="none" 
	d="
M122.833549,292.001709 
	C122.833549,298.446320 122.833549,304.890900 122.833549,312.385284 
	C116.839470,311.126129 111.107803,309.931061 105.383224,308.702972 
	C104.918434,308.603271 104.524834,308.187225 104.059914,308.070435 
	C91.934456,305.024261 91.933578,305.027740 92.552597,292.460266 
	C102.999413,292.001495 112.916481,292.001617 122.833549,292.001709 
z"/>
<path fill="#7773EE" opacity="1.000000" stroke="none" 
	d="
M203.904999,300.531738 
	C193.584091,300.995209 183.333969,300.995850 172.626007,300.995667 
	C172.168137,295.540863 172.168137,290.086914 172.168137,284.498962 
	C182.672485,284.498962 193.053253,284.498962 203.975784,284.498962 
	C203.975784,289.543579 203.975784,294.806244 203.904999,300.531738 
z"/>
<path fill="#6C7DEC" opacity="1.000000" stroke="none" 
	d="
M162.833328,298.998413 
	C162.833328,304.767639 162.833328,310.536865 162.833328,317.229065 
	C152.604996,316.154419 142.533813,315.096313 132.022812,313.991974 
	C132.022812,309.106476 132.022812,304.514618 132.552704,299.460815 
	C142.999496,298.998718 152.916412,298.998566 162.833328,298.998413 
z"/>
<path fill="#B33FF5" opacity="1.000000" stroke="none" 
	d="
M223.904449,208.534256 
	C213.551193,209.313202 203.268723,209.629578 192.576019,209.971130 
	C192.165802,204.533707 192.165802,199.071121 192.165802,193.303589 
	C202.649521,193.303589 213.032410,193.303589 223.975204,193.303589 
	C223.975204,198.214020 223.975204,203.142838 223.904449,208.534256 
z"/>
<path fill="#2DB4E4" opacity="1.000000" stroke="none" 
	d="
M192.096741,392.462006 
	C202.417755,392.332123 212.668060,392.665894 223.376404,393.000000 
	C223.834442,398.127808 223.834442,403.255249 223.834442,408.691742 
	C213.344269,408.691742 202.965973,408.691742 192.026047,408.691742 
	C192.026047,403.443207 192.026047,398.184418 192.096741,392.462006 
z"/>
<path fill="#7773EE" opacity="1.000000" stroke="none" 
	d="
M162.904205,298.536194 
	C152.916412,298.998566 142.999496,298.998718 132.624634,298.998566 
	C132.166672,293.226898 132.166672,287.455505 132.166672,280.920074 
	C142.378464,281.972656 152.449966,283.010773 162.975082,284.095642 
	C162.975082,288.889221 162.975082,293.481598 162.904205,298.536194 
z"/>
<path fill="#A849F4" opacity="1.000000" stroke="none" 
	d="
M233.091858,208.460281 
	C243.083252,207.997879 253.000656,207.998474 263.376099,207.998169 
	C263.834167,212.775543 263.834167,217.553818 263.834167,222.808350 
	C253.660904,223.774506 243.537262,224.735947 233.017883,225.734985 
	C233.017883,220.131165 233.017883,214.527222 233.091858,208.460281 
z"/>
<path fill="#B93AF6" opacity="1.000000" stroke="none" 
	d="
M304.903290,199.535126 
	C294.582336,199.998886 284.332520,199.998978 273.624664,199.998352 
	C273.187958,196.194046 271.924927,191.588837 273.639343,188.841980 
	C274.996826,186.667038 279.995514,186.725220 283.397980,185.874466 
	C290.407562,184.121765 297.430939,182.424316 304.974396,180.575256 
	C304.974396,187.171036 304.974396,193.121246 304.903290,199.535126 
z"/>
<path fill="#7B70EE" opacity="1.000000" stroke="none" 
	d="
M122.904480,291.541473 
	C112.916481,292.001617 102.999413,292.001495 92.624374,292.001587 
	C92.166397,285.529694 92.166397,279.057556 92.166397,272.494507 
	C102.303528,274.805115 112.388130,277.103790 122.975410,279.516998 
	C122.975410,283.171967 122.975410,287.126617 122.904480,291.541473 
z"/>
<path fill="#39A9E6" opacity="1.000000" stroke="none" 
	d="
M183.905457,388.539215 
	C173.582916,389.000458 163.332504,389.000549 152.624084,389.001160 
	C152.166092,383.406403 152.166092,377.811157 152.166092,372.334381 
	C162.780930,373.426025 173.109589,374.488251 183.977585,375.605927 
	C183.977585,379.576019 183.977585,383.827026 183.905457,388.539215 
z"/>
<path fill="#AE44F5" opacity="1.000000" stroke="none" 
	d="
M112.093781,202.450943 
	C122.084053,201.994537 132.000076,201.995346 142.374023,201.994904 
	C142.831955,208.266937 142.831955,214.540237 142.831955,221.343369 
	C132.445694,218.762924 122.441803,216.277481 112.019539,213.688080 
	C112.019539,210.149658 112.019539,206.528915 112.093781,202.450943 
z"/>
<path fill="#7773EE" opacity="1.000000" stroke="none" 
	d="
M243.904175,297.537231 
	C233.916382,298.000671 223.999512,298.000671 213.624664,298.000671 
	C213.166718,293.554779 213.166718,289.108856 213.166718,284.150116 
	C223.280838,283.070190 233.364609,281.993530 243.975082,280.860596 
	C243.975082,286.571930 243.975082,291.822876 243.904175,297.537231 
z"/>
<path fill="#7B70EE" opacity="1.000000" stroke="none" 
	d="
M52.099831,278.356079 
	C62.083324,277.994385 71.999947,277.994934 82.374466,277.994141 
	C82.832367,285.586182 82.832367,293.179535 82.832367,301.637482 
	C70.376396,296.131226 57.950466,291.921082 52.099831,278.356079 
z"/>
<path fill="#8766F0" opacity="1.000000" stroke="none" 
	d="
M303.574249,255.090317 
	C311.344513,255.308289 318.809265,255.654434 326.553528,256.335968 
	C317.451874,261.925415 310.413483,269.669312 303.719910,277.852448 
	C297.989014,277.056427 292.577576,276.527100 287.166168,275.997742 
	C292.533691,269.071320 297.901215,262.144897 303.574249,255.090317 
z"/>
<path fill="#A849F4" opacity="1.000000" stroke="none" 
	d="
M152.093048,210.454315 
	C160.659637,209.995743 169.152603,209.951065 177.644257,210.037582 
	C179.443634,210.055908 181.238129,210.553345 183.434067,210.911652 
	C183.833252,215.928970 183.833252,220.864655 183.833252,225.865494 
	C173.193649,224.852173 162.853455,223.867355 152.018951,222.835480 
	C152.018951,218.775253 152.018951,214.845108 152.093048,210.454315 
z"/>
<path fill="#35ADE5" opacity="1.000000" stroke="none" 
	d="
M419.401672,401.058655 
	C417.386230,400.407440 415.756226,399.183716 414.062897,399.088623 
	C406.280212,398.651642 398.479797,398.529816 390.487732,397.799438 
	C401.436279,394.658875 410.704590,388.391815 420.313507,381.987488 
	C427.201202,382.358276 433.661011,382.697968 440.120819,383.037689 
	C433.333191,389.027130 426.545593,395.016571 419.401672,401.058655 
z"/>
<path fill="#9D52F2" opacity="1.000000" stroke="none" 
	d="
M314.876831,234.877075 
	C312.546783,234.223511 310.601654,233.107925 308.642822,233.083344 
	C295.899384,232.923431 283.152618,233.042389 270.407837,232.950104 
	C268.707245,232.937790 267.011505,232.248413 265.157013,231.519073 
	C282.686096,228.817780 299.892883,224.539017 316.590363,218.343842 
	C316.775543,218.434830 316.951355,218.475830 317.064117,218.583084 
	C326.420868,227.482300 326.271149,228.828842 314.876831,234.877075 
z"/>
<path fill="#2DB4E4" opacity="1.000000" stroke="none" 
	d="
M233.095459,393.462341 
	C243.083344,393.000122 253.000656,392.999908 263.375977,393.000031 
	C263.833984,397.130249 263.833984,401.260132 263.833984,405.782562 
	C253.679382,406.724609 243.607635,407.658936 233.024887,408.640686 
	C233.024887,403.717407 233.024887,398.820892 233.095459,393.462341 
z"/>
<path fill="#B93AF6" opacity="1.000000" stroke="none" 
	d="
M313.165863,195.998932 
	C313.116547,191.638748 313.067230,187.278549 313.491669,182.376389 
	C315.762207,181.557480 317.556732,181.059494 319.356140,181.041275 
	C327.848206,180.955261 336.341644,181.000610 344.834595,180.999100 
	C345.981567,187.871750 341.744720,192.315155 337.221161,196.584381 
	C328.891998,196.219162 321.028931,196.109055 313.165863,195.998932 
z"/>
<path fill="#32B0E5" opacity="1.000000" stroke="none" 
	d="
M351.039093,398.882935 
	C348.250732,399.588501 345.489716,400.739990 342.668732,400.912781 
	C335.327087,401.362549 327.959167,401.382874 320.275604,401.839355 
	C314.038391,397.643524 308.127258,393.182861 302.409180,388.149109 
	C306.969116,387.383942 311.351685,387.351807 315.695862,386.927155 
	C317.645966,386.736542 319.519348,385.760681 321.807007,385.108826 
	C330.856964,391.657806 340.781006,395.619385 351.039093,398.882935 
z"/>
<path fill="#41A3E7" opacity="1.000000" stroke="none" 
	d="
M142.905121,380.552734 
	C132.916229,381.001678 122.999229,381.001373 112.624237,381.001526 
	C112.166252,375.531494 112.166252,370.061005 112.166252,364.106232 
	C113.498131,364.218384 114.737465,364.179749 115.908257,364.444336 
	C123.957550,366.263458 132.016449,368.053040 140.005859,370.110046 
	C141.182114,370.412872 142.621368,371.956390 142.861984,373.144012 
	C143.314941,375.379822 142.982773,377.774689 142.905121,380.552734 
z"/>
<path fill="#41A3E7" opacity="1.000000" stroke="none" 
	d="
M440.432800,382.901917 
	C433.661011,382.697968 427.201202,382.358276 420.449738,381.678650 
	C425.762360,374.518677 431.366638,367.698639 437.291412,361.146332 
	C439.392059,361.608582 441.172272,361.802612 442.952362,361.997650 
	C446.319092,362.366486 449.685791,362.735901 453.052490,363.105072 
	C448.949921,369.658783 444.847321,376.212494 440.432800,382.901917 
z"/>
<path fill="#B93AF6" opacity="1.000000" stroke="none" 
	d="
M74.138603,190.432892 
	C73.097328,186.576797 72.056053,182.720703 71.499672,178.409576 
	C77.774582,177.638794 83.569458,177.391083 89.352585,176.978745 
	C92.264442,176.771133 95.154991,176.264709 98.055176,175.893402 
	C101.545609,175.918228 103.518806,177.204636 103.061363,181.165054 
	C102.760086,183.773499 102.988869,186.443161 102.450249,189.544159 
	C92.659668,190.146210 83.399132,190.289551 74.138603,190.432892 
z"/>
<path fill="#4A9AE8" opacity="1.000000" stroke="none" 
	d="
M72.167351,365.000610 
	C72.167351,357.904785 72.167351,350.808960 72.167351,344.881836 
	C81.476784,349.602264 91.239136,354.368896 100.755264,359.584747 
	C102.108047,360.326233 102.265274,363.248962 102.505325,365.497711 
	C92.078987,365.555725 82.123169,365.278168 72.167351,365.000610 
z"/>
<path fill="#39A9E6" opacity="1.000000" stroke="none" 
	d="
M321.427521,385.141144 
	C319.519348,385.760681 317.645966,386.736542 315.695862,386.927155 
	C311.351685,387.351807 306.969116,387.383942 302.276245,387.840881 
	C297.321320,382.103455 292.692291,376.101166 288.603821,369.644043 
	C294.832825,369.128601 300.521301,369.068085 306.501099,369.160431 
	C311.670776,374.589264 316.549133,379.865204 321.427521,385.141144 
z"/>
<path fill="#41A3E7" opacity="1.000000" stroke="none" 
	d="
M72.096680,365.415955 
	C82.123169,365.278168 92.078987,365.555725 102.433777,365.916077 
	C102.880478,369.695435 102.928200,373.391968 102.487648,377.538025 
	C93.961990,378.005829 85.924614,378.024078 77.887230,378.042328 
	C73.716911,375.035919 71.547722,371.069000 72.096680,365.415955 
z"/>
<path fill="#B33FF5" opacity="1.000000" stroke="none" 
	d="
M74.098572,190.801544 
	C83.399132,190.289551 92.659668,190.146210 102.378418,190.003143 
	C102.836639,196.579483 102.836639,203.155579 102.836639,210.099075 
	C91.524414,205.858154 81.400818,200.647705 74.098572,190.801544 
z"/>
<path fill="#C530F8" opacity="1.000000" stroke="none" 
	d="
M344.905273,180.535202 
	C336.341644,181.000610 327.848206,180.955261 319.356140,181.041275 
	C317.556732,181.059494 315.762207,181.557480 313.566284,181.916901 
	C313.167114,180.522125 313.167114,179.044861 313.167114,178.742538 
	C324.146637,172.602066 334.594116,166.759140 344.975952,160.952942 
	C344.975952,167.126892 344.975952,173.599091 344.905273,180.535202 
z"/>
<path fill="#7B70EE" opacity="1.000000" stroke="none" 
	d="
M287.008850,276.324768 
	C292.577576,276.527100 297.989014,277.056427 303.580933,278.171234 
	C300.547668,285.184998 297.333923,291.613312 293.703003,297.962402 
	C288.247375,297.588501 283.208893,297.293823 278.170380,296.999146 
	C281.064087,290.216705 283.957794,283.434265 287.008850,276.324768 
z"/>
<path fill="#7B70EE" opacity="1.000000" stroke="none" 
	d="
M253.167007,293.997131 
	C253.167007,289.210632 253.167007,284.424103 253.167007,279.439636 
	C261.304596,277.633179 269.405426,275.834900 277.963318,273.935150 
	C275.247284,280.692413 272.710480,287.003784 269.546509,293.656830 
	C263.668549,293.998077 258.417786,293.997620 253.167007,293.997131 
z"/>
<path fill="#4A9AE8" opacity="1.000000" stroke="none" 
	d="
M306.209778,369.007538 
	C300.521301,369.068085 294.832825,369.128601 288.619568,369.255096 
	C285.401306,363.833374 282.707855,358.345703 280.202515,352.149963 
	C285.300903,350.948822 290.211212,350.455750 295.436096,350.132080 
	C299.237091,356.536804 302.723419,362.772156 306.209778,369.007538 
z"/>
<path fill="#32B0E5" opacity="1.000000" stroke="none" 
	d="
M287.049377,384.894287 
	C290.852844,388.970398 294.656281,393.046539 299.305511,398.029083 
	C290.341949,400.137970 281.927216,402.117706 273.025299,404.212097 
	C273.025299,398.492584 273.025299,393.211578 273.503418,387.441254 
	C278.337494,386.266052 282.693420,385.580170 287.049377,384.894287 
z"/>
<path fill="#5095E9" opacity="1.000000" stroke="none" 
	d="
M453.375397,362.932251 
	C449.685791,362.735901 446.319092,362.366486 442.952362,361.997650 
	C441.172272,361.802612 439.392059,361.608582 437.434265,360.820740 
	C439.823517,354.113220 442.390442,347.998993 445.280151,342.150757 
	C450.442719,342.624420 455.282501,342.832062 460.122253,343.039703 
	C457.980927,349.612946 455.839600,356.186188 453.375397,362.932251 
z"/>
<path fill="#6C7DEC" opacity="1.000000" stroke="none" 
	d="
M278.095825,297.408691 
	C283.208893,297.293823 288.247375,297.588501 293.651001,298.366882 
	C292.955109,304.566864 291.894104,310.283173 290.377228,315.999634 
	C285.003265,315.999176 280.085175,315.998505 275.167084,315.997833 
	C276.118469,309.937958 277.069885,303.878113 278.095825,297.408691 
z"/>
<path fill="#5492E9" opacity="1.000000" stroke="none" 
	d="
M295.121490,349.962708 
	C290.211212,350.455750 285.300903,350.948822 280.169861,351.773560 
	C278.408569,345.669342 276.868042,339.233368 275.663239,332.406036 
	C280.943604,332.343842 285.888275,332.673065 290.914856,333.399902 
	C292.371674,339.185913 293.746582,344.574310 295.121490,349.962708 
z"/>
<path fill="#6187EB" opacity="1.000000" stroke="none" 
	d="
M290.832916,333.002289 
	C285.888275,332.673065 280.943604,332.343842 275.583984,332.008728 
	C275.120728,326.975983 275.072449,321.949219 275.095612,316.460144 
	C280.085175,315.998505 285.003265,315.999176 290.448700,316.462555 
	C290.928345,322.284271 290.880615,327.643280 290.832916,333.002289 
z"/>
<path fill="#8766F0" opacity="1.000000" stroke="none" 
	d="
M436.112579,256.955811 
	C439.332367,260.724121 442.552185,264.492493 445.590820,268.836487 
	C439.567383,269.954224 433.725128,270.496277 427.577606,270.909607 
	C423.136383,266.868835 419.000397,262.956848 415.257172,258.879791 
	C418.084717,258.477020 420.517242,258.212769 422.954742,258.007477 
	C427.339111,257.638275 431.726471,257.304413 436.112579,256.955811 
z"/>
<path fill="#707AED" opacity="1.000000" stroke="none" 
	d="
M253.095016,294.460632 
	C258.417786,293.997620 263.668549,293.998077 269.375854,293.997894 
	C268.814819,299.181244 267.797302,304.365265 266.737640,309.763916 
	C262.316559,310.594727 257.942932,311.416656 253.023026,312.341217 
	C253.023026,306.095581 253.023026,300.509857 253.095016,294.460632 
z"/>
<path fill="#6682EC" opacity="1.000000" stroke="none" 
	d="
M461.832825,310.996185 
	C462.213745,316.026123 462.594635,321.056030 462.448883,326.541443 
	C457.003693,326.996643 452.085144,326.996429 447.095581,326.536804 
	C446.738647,321.050293 446.452789,316.023132 446.622803,310.996338 
	C451.996704,310.996552 456.914764,310.996368 461.832825,310.996185 
z"/>
<path fill="#5A8DEA" opacity="1.000000" stroke="none" 
	d="
M447.166626,326.996185 
	C452.085144,326.996429 457.003693,326.996643 462.377747,326.996094 
	C462.160034,332.195862 461.486755,337.396454 460.467865,342.818359 
	C455.282501,342.832062 450.442719,342.624420 445.298645,341.733215 
	C445.718414,336.365143 446.442535,331.680664 447.166626,326.996185 
z"/>
<path fill="#39A9E6" opacity="1.000000" stroke="none" 
	d="
M78.026703,378.354340 
	C85.924614,378.024078 93.961990,378.005829 102.415802,377.993896 
	C102.832222,382.899658 102.832222,387.799072 102.832222,393.143585 
	C93.705887,389.274414 84.872543,385.819702 78.026703,378.354340 
z"/>
<path fill="#707AED" opacity="1.000000" stroke="none" 
	d="
M461.903625,310.582214 
	C456.914764,310.996368 451.996704,310.996552 446.551758,310.585571 
	C445.072388,305.781891 444.119965,301.389343 443.565369,296.914307 
	C448.919769,296.554413 453.876312,296.277039 458.832825,295.999634 
	C459.880035,300.722504 460.927246,305.445343 461.903625,310.582214 
z"/>
<path fill="#826AEF" opacity="1.000000" stroke="none" 
	d="
M427.882874,271.038361 
	C433.725128,270.496277 439.567383,269.954224 445.732910,269.143982 
	C448.367188,272.973206 450.678223,277.070587 452.694580,281.796265 
	C447.227722,282.629547 442.055603,282.834534 436.566803,282.898376 
	C433.461029,278.850922 430.671936,274.944641 427.882874,271.038361 
z"/>
<path fill="#905EF1" opacity="1.000000" stroke="none" 
	d="
M435.974976,256.645996 
	C431.726471,257.304413 427.339111,257.638275 422.954742,258.007477 
	C420.517242,258.212769 418.084717,258.477020 414.943726,258.734924 
	C409.638153,256.100098 405.038818,253.445068 400.439453,250.790039 
	C405.448059,250.193344 410.445923,249.469421 415.469025,249.043961 
	C418.913116,248.752258 422.392395,248.875656 426.381195,248.747269 
	C429.883423,251.232758 432.860382,253.784470 435.974976,256.645996 
z"/>
<path fill="#C530F8" opacity="1.000000" stroke="none" 
	d="
M97.879700,175.569000 
	C95.154991,176.264709 92.264442,176.771133 89.352585,176.978745 
	C83.569458,177.391083 77.774582,177.638794 71.574097,177.981064 
	C71.163620,172.093033 71.163620,166.178467 71.163620,160.881470 
	C80.004883,165.666138 88.854553,170.455353 97.879700,175.569000 
z"/>
<path fill="#B33FF5" opacity="1.000000" stroke="none" 
	d="
M313.093018,196.458710 
	C321.028931,196.109055 328.891998,196.219162 336.897644,196.703247 
	C329.406952,201.706238 321.773712,206.335236 313.020172,211.643616 
	C313.020172,205.463593 313.020172,201.191040 313.093018,196.458710 
z"/>
<path fill="#7773EE" opacity="1.000000" stroke="none" 
	d="
M436.883484,283.039551 
	C442.055603,282.834534 447.227722,282.629547 452.725555,282.160400 
	C455.025452,286.344208 456.999664,290.792114 458.903381,295.619843 
	C453.876312,296.277039 448.919769,296.554413 443.403320,296.582520 
	C440.856781,291.902008 438.870117,287.470764 436.883484,283.039551 
z"/>
<path fill="#39A9E6" opacity="1.000000" stroke="none" 
	d="
M287.029602,384.538574 
	C282.693420,385.580170 278.337494,386.266052 273.574646,386.978577 
	C273.112640,382.705139 272.846069,378.391357 273.123962,374.112915 
	C273.214081,372.725555 274.730133,371.430786 275.593964,370.093658 
	C276.798248,370.908905 278.336487,371.479401 279.146149,372.583923 
	C281.905853,376.348724 284.408844,380.301697 287.029602,384.538574 
z"/>
<path fill="#905EF1" opacity="1.000000" stroke="none" 
	d="
M426.105103,247.807190 
	C425.938263,247.889694 425.651703,247.714111 425.193909,247.354279 
	C425.343597,247.296402 425.664490,247.422745 426.105103,247.807190 
z"/>
<path fill="#9D52F2" opacity="1.000000" stroke="none" 
	d="
M52.154362,237.276184 
	C52.424767,237.204025 52.622936,237.430267 52.872108,237.900986 
	C52.687073,237.916382 52.406742,237.726074 52.154362,237.276184 
z"/>
<path fill="#000000" opacity="1.000000" stroke="none" 
	d="
M436.566803,282.898376 
	C438.870117,287.470764 440.856781,291.902008 443.005493,296.665039 
	C444.119965,301.389343 445.072388,305.781891 446.095886,310.585205 
	C446.452789,316.023132 446.738647,321.050293 447.095581,326.536804 
	C446.442535,331.680664 445.718414,336.365143 444.975830,341.467194 
	C442.390442,347.998993 439.823517,354.113220 437.113770,360.553040 
	C431.366638,367.698639 425.762360,374.518677 420.021851,381.647583 
	C410.704590,388.391815 401.436279,394.658875 390.098694,397.631989 
	C385.783508,398.640808 381.661896,399.869049 377.534668,399.888275 
	C368.991577,399.928131 360.445557,399.324860 351.469910,398.934509 
	C340.781006,395.619385 330.856964,391.657806 321.807007,385.108826 
	C316.549133,379.865204 311.670776,374.589264 306.501099,369.160431 
	C302.723419,362.772156 299.237091,356.536804 295.436096,350.132080 
	C293.746582,344.574310 292.371674,339.185913 290.914856,333.399902 
	C290.880615,327.643280 290.928345,322.284271 290.904572,316.462341 
	C291.894104,310.283173 292.955109,304.566864 294.068115,298.446106 
	C297.333923,291.613312 300.547668,285.184998 303.900391,278.437927 
	C310.413483,269.669312 317.451874,261.925415 326.989746,256.351746 
	C341.210754,247.821564 356.273193,242.612747 372.647827,244.222595 
	C381.854095,245.127716 390.841003,248.263550 400.183105,250.592224 
	C405.038818,253.445068 409.638153,256.100098 414.550964,258.900024 
	C419.000397,262.956848 423.136383,266.868835 427.577606,270.909607 
	C430.671936,274.944641 433.461029,278.850922 436.566803,282.898376 
M304.237823,348.704071 
	C306.142426,352.168793 308.047058,355.633514 310.221619,359.733490 
	C312.440979,362.501312 314.660339,365.269104 317.155945,368.654388 
	C321.438141,372.380646 325.720367,376.106903 330.643860,380.143311 
	C335.645691,382.764526 340.431671,385.983795 345.694031,387.883301 
	C356.891144,391.925079 368.563904,393.327240 380.346771,390.921722 
	C390.327911,388.884064 400.167633,386.225494 408.747040,379.001953 
	C413.535889,374.348816 418.324768,369.695679 423.739960,364.768707 
	C426.437744,360.512360 429.135529,356.256012 431.989716,351.251923 
	C433.271027,347.500610 434.552368,343.749268 435.998901,339.194427 
	C436.610504,334.130188 437.222107,329.065979 437.975586,323.087952 
	C437.594696,318.058746 437.213837,313.029541 436.972778,307.227783 
	C435.259735,302.484650 433.546661,297.741486 431.762604,292.298035 
	C428.190765,287.161804 424.618927,282.025574 420.785919,276.278839 
	C416.825073,272.743591 412.864227,269.208313 408.717194,265.235962 
	C408.717194,265.235962 408.265381,265.089050 408.014557,264.540680 
	C407.674805,264.409210 407.335052,264.277771 406.342438,263.849762 
	C403.366608,262.232544 400.465912,260.454102 397.401947,259.025909 
	C383.889801,252.727539 369.689819,251.418884 355.180847,254.074844 
	C345.552094,255.837479 336.522980,259.339447 328.251129,265.993347 
	C323.463226,270.647858 318.675354,275.302338 313.255981,280.237610 
	C310.551117,284.824158 307.846252,289.410675 305.006042,294.753937 
	C303.726288,299.169647 302.446533,303.585358 300.786438,308.733490 
	C300.246796,312.155640 299.707123,315.577789 299.024750,319.881226 
	C299.405609,323.253906 299.786469,326.626556 300.024872,330.833313 
	C300.667358,333.924866 301.309814,337.016449 301.995178,340.875549 
	C302.718658,343.250153 303.442139,345.624756 304.237823,348.704071 
z"/>
<path fill="#6682EC" opacity="1.000000" stroke="none" 
	d="
M436.832977,308.000336 
	C437.213837,313.029541 437.594696,318.058746 437.446655,323.544678 
	C423.507538,324.001343 410.096710,323.929657 396.687592,324.048767 
	C393.083191,324.080780 389.484009,324.693512 385.568726,324.900604 
	C380.242065,320.331909 374.480591,318.171204 367.706604,317.884155 
	C362.126740,317.647705 357.682861,314.961578 356.277954,308.843262 
	C360.704010,308.385468 364.807404,308.235748 368.905090,307.990448 
	C373.976166,307.686890 379.042511,307.303986 384.424896,307.090973 
	C386.207855,307.337860 387.676849,307.449127 389.580688,307.756561 
	C392.108734,308.301514 394.198700,308.927063 396.295654,308.951447 
	C405.715729,309.060944 415.139282,309.097748 424.558411,308.954529 
	C428.653809,308.892242 432.741699,308.333557 436.832977,308.000336 
z"/>
<path fill="#8D61F0" opacity="1.000000" stroke="none" 
	d="
M408.265381,265.089050 
	C408.265381,265.089050 408.717194,265.235962 408.340942,265.562469 
	C405.364655,266.258881 402.768677,266.910889 400.163849,266.948486 
	C390.406281,267.089294 380.645752,267.029205 370.523407,267.024567 
	C368.812622,267.349457 367.464752,267.694214 365.641022,268.028870 
	C354.741425,268.011749 344.316010,268.096832 333.895782,267.903198 
	C332.237885,267.872406 330.603302,266.588715 328.957947,265.884247 
	C336.522980,259.339447 345.552094,255.837479 355.180847,254.074844 
	C369.689819,251.418884 383.889801,252.727539 397.401947,259.025909 
	C400.465912,260.454102 403.366608,262.232544 406.849487,264.192505 
	C407.659454,264.719849 407.962433,264.904449 408.265381,265.089050 
z"/>
<path fill="#39A9E6" opacity="1.000000" stroke="none" 
	d="
M408.042297,379.113708 
	C400.167633,386.225494 390.327911,388.884064 380.346771,390.921722 
	C368.563904,393.327240 356.891144,391.925079 345.694031,387.883301 
	C340.431671,385.983795 335.645691,382.764526 330.479492,379.634827 
	C332.346588,378.750885 334.367249,378.132050 336.411377,378.041321 
	C346.308258,377.602051 356.211456,377.304596 366.468933,376.983124 
	C369.754059,378.862396 371.342957,376.841339 373.094574,375.267090 
	C374.893951,376.096558 376.548553,376.911652 378.216034,376.938812 
	C386.506012,377.073730 394.802307,376.887207 403.089172,377.097168 
	C404.756165,377.139435 406.392059,378.409668 408.042297,379.113708 
z"/>
<path fill="#5A8DEA" opacity="1.000000" stroke="none" 
	d="
M301.952271,340.108002 
	C301.309814,337.016449 300.667358,333.924866 300.495056,330.333435 
	C303.262848,329.555725 305.559692,329.044037 307.858124,329.036743 
	C327.852722,328.973175 347.847717,329.032928 367.842194,328.950684 
	C369.911499,328.942169 371.977997,328.248688 374.407104,327.933777 
	C380.258789,330.113251 382.526306,334.397186 382.375183,339.998596 
	C372.892181,340.017029 363.867218,340.035248 354.519562,339.881226 
	C351.903351,334.655792 348.997772,336.999969 345.641418,339.030640 
	C332.499146,339.013916 319.832550,338.964752 307.166809,339.049561 
	C305.426331,339.061188 303.690338,339.738739 301.952271,340.108002 
z"/>
<path fill="#5A8DEA" opacity="1.000000" stroke="none" 
	d="
M385.882385,325.039673 
	C389.484009,324.693512 393.083191,324.080780 396.687592,324.048767 
	C410.096710,323.929657 423.507538,324.001343 437.375732,324.001556 
	C437.222107,329.065979 436.610504,334.130188 435.517212,339.513672 
	C432.905304,339.555298 430.776489,339.051178 428.644562,339.037567 
	C416.485718,338.959869 404.326141,338.999054 391.986847,338.653931 
	C389.832062,333.886169 387.857239,329.462952 385.882385,325.039673 
z"/>
<path fill="#7B70EE" opacity="1.000000" stroke="none" 
	d="
M421.047058,276.889343 
	C424.618927,282.025574 428.190765,287.161804 431.340149,292.648651 
	C419.334534,292.999664 407.750946,292.949097 396.168640,293.047089 
	C394.069977,293.064819 391.976471,293.691406 389.574585,293.880127 
	C386.800201,287.564484 381.560242,284.633881 375.971893,281.926941 
	C374.701080,281.311371 374.084290,279.345673 373.624664,278.001465 
	C387.843964,278.001404 401.605286,278.043823 415.365753,277.951813 
	C417.261810,277.939117 419.153412,277.259949 421.047058,276.889343 
z"/>
<path fill="#707AED" opacity="1.000000" stroke="none" 
	d="
M389.880585,294.036926 
	C391.976471,293.691406 394.069977,293.064819 396.168640,293.047089 
	C407.750946,292.949097 419.334534,292.999664 431.375610,292.998779 
	C433.546661,297.741486 435.259735,302.484650 436.902893,307.614075 
	C432.741699,308.333557 428.653809,308.892242 424.558411,308.954529 
	C415.139282,309.097748 405.715729,309.060944 396.295654,308.951447 
	C394.198700,308.927063 392.108734,308.301514 389.892273,307.508850 
	C390.490082,304.972870 391.779419,302.880341 391.777954,300.788757 
	C391.776367,298.537689 390.564453,296.287476 389.880585,294.036926 
z"/>
<path fill="#7B70EE" opacity="1.000000" stroke="none" 
	d="
M305.141418,293.997192 
	C307.846252,289.410675 310.551117,284.824158 313.989868,280.176880 
	C317.006897,280.410370 319.288208,280.940887 321.573517,280.958740 
	C332.837463,281.046692 344.102905,280.947327 355.366608,281.049164 
	C357.260010,281.066284 359.147430,281.746124 360.875244,282.431488 
	C354.550903,284.862610 350.457611,289.156677 347.375000,294.995819 
	C338.770081,294.997345 330.620850,295.121948 322.477478,294.956726 
	C316.694672,294.839355 310.919800,294.331024 305.141418,293.997192 
z"/>
<path fill="#826AEF" opacity="1.000000" stroke="none" 
	d="
M361.037598,282.119751 
	C359.147430,281.746124 357.260010,281.066284 355.366608,281.049164 
	C344.102905,280.947327 332.837463,281.046692 321.573517,280.958740 
	C319.288208,280.940887 317.006897,280.410370 314.305603,280.036499 
	C318.675354,275.302338 323.463226,270.647858 328.604553,265.938782 
	C330.603302,266.588715 332.237885,267.872406 333.895782,267.903198 
	C344.316010,268.096832 354.741425,268.011749 365.469482,268.382019 
	C365.181915,272.172211 364.271210,275.584076 364.107666,279.031403 
	C363.994476,281.417297 363.283600,282.293610 361.037598,282.119751 
z"/>
<path fill="#4A9AE8" opacity="1.000000" stroke="none" 
	d="
M431.833313,351.999695 
	C429.135529,356.256012 426.437744,360.512360 422.950989,364.895477 
	C409.920135,365.014771 397.675415,365.149200 385.438385,364.902954 
	C382.265320,364.839081 379.116211,363.583984 376.125793,362.559570 
	C382.655090,360.685791 385.797180,355.253967 390.274719,351.124939 
	C392.621613,351.526764 394.576080,351.956268 396.532898,351.966949 
	C408.299408,352.031219 420.066437,351.999359 431.833313,351.999695 
z"/>
<path fill="#6682EC" opacity="1.000000" stroke="none" 
	d="
M299.167450,318.999939 
	C299.707123,315.577789 300.246796,312.155640 301.434540,308.367310 
	C316.765289,307.989716 331.447906,307.978333 346.453796,308.152466 
	C348.199524,311.510071 349.622040,314.682190 350.828613,318.191589 
	C348.616333,319.019196 346.624298,319.912354 344.622864,319.933960 
	C332.403839,320.065918 320.182159,320.062805 307.962677,319.954376 
	C305.028351,319.928375 302.099060,319.333313 299.167450,318.999939 
z"/>
<path fill="#6187EB" opacity="1.000000" stroke="none" 
	d="
M299.096100,319.440582 
	C302.099060,319.333313 305.028351,319.928375 307.962677,319.954376 
	C320.182159,320.062805 332.403839,320.065918 344.622864,319.933960 
	C346.624298,319.912354 348.616333,319.019196 351.152283,318.348694 
	C355.722473,320.777985 359.542816,323.839844 363.854950,325.843262 
	C366.907349,327.261444 370.625061,327.247620 374.045776,327.873016 
	C371.977997,328.248688 369.911499,328.942169 367.842194,328.950684 
	C347.847717,329.032928 327.852722,328.973175 307.858124,329.036743 
	C305.559692,329.044037 303.262848,329.555725 300.566284,329.916382 
	C299.786469,326.626556 299.405609,323.253906 299.096100,319.440582 
z"/>
<path fill="#707AED" opacity="1.000000" stroke="none" 
	d="
M346.130554,307.966949 
	C331.447906,307.978333 316.765289,307.989716 301.624695,308.001099 
	C302.446533,303.585358 303.726288,299.169647 305.073730,294.375549 
	C310.919800,294.331024 316.694672,294.839355 322.477478,294.956726 
	C330.620850,295.121948 338.770081,294.997345 347.313232,295.380585 
	C347.183289,299.831970 346.656921,303.899475 346.130554,307.966949 
z"/>
<path fill="#41A3E7" opacity="1.000000" stroke="none" 
	d="
M375.956116,362.876068 
	C379.116211,363.583984 382.265320,364.839081 385.438385,364.902954 
	C397.675415,365.149200 409.920135,365.014771 422.637817,365.032410 
	C418.324768,369.695679 413.535889,374.348816 408.394653,379.057831 
	C406.392059,378.409668 404.756165,377.139435 403.089172,377.097168 
	C394.802307,376.887207 386.506012,377.073730 378.216034,376.938812 
	C376.548553,376.911652 374.893951,376.096558 373.113617,374.813660 
	C372.997498,371.167816 372.743958,368.316193 373.139984,365.557800 
	C373.284698,364.549896 374.972382,363.763519 375.956116,362.876068 
z"/>
<path fill="#5492E9" opacity="1.000000" stroke="none" 
	d="
M431.911499,351.625793 
	C420.066437,351.999359 408.299408,352.031219 396.532898,351.966949 
	C394.576080,351.956268 392.621613,351.526764 390.325287,350.721252 
	C390.711945,346.433960 391.439362,342.716248 392.166809,338.998505 
	C404.326141,338.999054 416.485718,338.959869 428.644562,339.037567 
	C430.776489,339.051178 432.905304,339.555298 435.434631,339.915405 
	C434.552368,343.749268 433.271027,347.500610 431.911499,351.625793 
z"/>
<path fill="#826AEF" opacity="1.000000" stroke="none" 
	d="
M420.916504,276.584106 
	C419.153412,277.259949 417.261810,277.939117 415.365753,277.951813 
	C401.605286,278.043823 387.843964,278.001404 373.553864,277.564423 
	C372.312012,273.766388 371.599182,270.405396 370.886353,267.044434 
	C380.645752,267.029205 390.406281,267.089294 400.163849,266.948486 
	C402.768677,266.910889 405.364655,266.258881 408.434021,265.781006 
	C412.864227,269.208313 416.825073,272.743591 420.916504,276.584106 
z"/>
<path fill="#41A3E7" opacity="1.000000" stroke="none" 
	d="
M366.112427,376.956879 
	C356.211456,377.304596 346.308258,377.602051 336.411377,378.041321 
	C334.367249,378.132050 332.346588,378.750885 330.158813,379.479736 
	C325.720367,376.106903 321.438141,372.380646 317.436768,368.267273 
	C320.001190,367.586426 322.283295,367.052765 324.568604,367.038452 
	C337.656372,366.956451 350.744904,366.997833 363.903870,367.413940 
	C364.687134,370.872650 365.399780,373.914764 366.112427,376.956879 
z"/>
<path fill="#4A9AE8" opacity="1.000000" stroke="none" 
	d="
M363.833191,366.997345 
	C350.744904,366.997833 337.656372,366.956451 324.568604,367.038452 
	C322.283295,367.052765 320.001190,367.586426 317.298676,367.958557 
	C314.660339,365.269104 312.440979,362.501312 310.412811,359.151367 
	C322.010559,358.378662 333.418396,358.240295 344.822601,357.955841 
	C347.260620,357.895081 349.685394,357.304199 352.430939,357.097351 
	C355.471191,358.828552 358.073120,360.715607 360.959503,361.922424 
	C363.503845,362.986267 364.562439,364.343170 363.833191,366.997345 
z"/>
<path fill="#5095E9" opacity="1.000000" stroke="none" 
	d="
M352.116272,356.957520 
	C349.685394,357.304199 347.260620,357.895081 344.822601,357.955841 
	C333.418396,358.240295 322.010559,358.378662 310.277832,358.833740 
	C308.047058,355.633514 306.142426,352.168793 304.659729,348.351685 
	C318.999084,347.999634 332.916504,347.999939 346.988525,348.323364 
	C348.800842,351.416809 350.458557,354.187164 352.116272,356.957520 
z"/>
<path fill="#5492E9" opacity="1.000000" stroke="none" 
	d="
M346.833923,348.000275 
	C332.916504,347.999939 318.999084,347.999634 304.623657,347.999359 
	C303.442139,345.624756 302.718658,343.250153 301.973724,340.491760 
	C303.690338,339.738739 305.426331,339.061188 307.166809,339.049561 
	C319.832550,338.964752 332.499146,339.013916 345.591187,339.451538 
	C346.289246,342.588257 346.561584,345.294281 346.833923,348.000275 
z"/>
<path fill="#826AEF" opacity="1.000000" stroke="none" 
	d="
M408.139954,264.814880 
	C407.962433,264.904449 407.659454,264.719849 407.175903,264.340759 
	C407.335052,264.277771 407.674805,264.409210 408.139954,264.814880 
z"/>
<path fill="#000000" opacity="1.000000" stroke="none" 
	d="
M346.988525,348.323364 
	C346.561584,345.294281 346.289246,342.588257 346.067139,339.461365 
	C348.997772,336.999969 351.903351,334.655792 354.587006,340.288086 
	C355.407349,350.026917 361.013947,355.156006 369.943085,355.055634 
	C376.486511,354.982056 384.501953,347.656281 382.833252,339.998352 
	C382.526306,334.397186 380.258789,330.113251 374.407104,327.933777 
	C370.625061,327.247620 366.907349,327.261444 363.854950,325.843262 
	C359.542816,323.839844 355.722473,320.777985 351.368225,318.011444 
	C349.622040,314.682190 348.199524,311.510071 346.453796,308.152466 
	C346.656921,303.899475 347.183289,299.831970 347.771423,295.379730 
	C350.457611,289.156677 354.550903,284.862610 360.875244,282.431488 
	C363.283600,282.293610 363.994476,281.417297 364.107666,279.031403 
	C364.271210,275.584076 365.181915,272.172211 365.945374,268.392090 
	C367.464752,267.694214 368.812622,267.349457 370.523438,267.024567 
	C371.599182,270.405396 372.312012,273.766388 373.095642,277.564392 
	C374.084290,279.345673 374.701080,281.311371 375.971893,281.926941 
	C381.560242,284.633881 386.800201,287.564484 389.574585,293.880096 
	C390.564453,296.287476 391.776367,298.537689 391.777954,300.788757 
	C391.779419,302.880341 390.490082,304.972870 389.457397,307.312683 
	C387.676849,307.449127 386.207855,307.337860 384.373047,306.693970 
	C383.669800,304.760864 383.234467,303.375732 383.012177,301.957214 
	C382.100494,296.139038 379.175842,291.609680 373.372345,290.298431 
	C368.207031,289.131409 362.755768,289.418549 358.732910,293.808594 
	C354.651581,298.262390 353.741364,303.438446 355.952728,309.108948 
	C357.682861,314.961578 362.126740,317.647705 367.706604,317.884155 
	C374.480591,318.171204 380.242065,320.331909 385.568726,324.900635 
	C387.857239,329.462952 389.832062,333.886169 391.986847,338.653931 
	C391.439362,342.716248 390.711945,346.433960 389.933960,350.555389 
	C385.797180,355.253967 382.655090,360.685791 376.125793,362.559570 
	C374.972382,363.763519 373.284698,364.549896 373.139984,365.557800 
	C372.743958,368.316193 372.997498,371.167816 372.974792,374.435974 
	C371.342957,376.841339 369.754059,378.862396 366.468933,376.983124 
	C365.399780,373.914764 364.687134,370.872650 363.903870,367.413940 
	C364.562439,364.343170 363.503845,362.986267 360.959503,361.922424 
	C358.073120,360.715607 355.471191,358.828552 352.430939,357.097351 
	C350.458557,354.187164 348.800842,351.416809 346.988525,348.323364 
z"/>
<path fill="#707AED" opacity="1.000000" stroke="none" 
	d="
M356.277954,308.843262 
	C353.741364,303.438446 354.651581,298.262390 358.732910,293.808594 
	C362.755768,289.418549 368.207031,289.131409 373.372345,290.298431 
	C379.175842,291.609680 382.100494,296.139038 383.012177,301.957214 
	C383.234467,303.375732 383.669800,304.760864 384.059021,306.558350 
	C379.042511,307.303986 373.976166,307.686890 368.905090,307.990448 
	C364.807404,308.235748 360.704010,308.385468 356.277954,308.843262 
z"/>
<path fill="#5492E9" opacity="1.000000" stroke="none" 
	d="
M382.375183,339.998596 
	C384.501953,347.656281 376.486511,354.982056 369.943085,355.055634 
	C361.013947,355.156006 355.407349,350.026917 354.909698,340.460327 
	C363.867218,340.035248 372.892181,340.017029 382.375183,339.998596 
z"/>
</svg>